<svg width="28" height="28" viewBox="0 0 28 28" fill="none" xmlns="http://www.w3.org/2000/svg">
<path d="M25.6673 9.11147V18.8881C25.6673 22.6331 22.634 25.6664 18.889 25.6664H9.11232C5.36732 25.6664 2.33398 22.6331 2.33398 18.8881V9.11147C2.33398 6.20647 3.52398 4.0948 5.63565 3.06814C6.40565 2.6948 7.29232 3.27814 7.29232 4.1298V14.4898C7.29232 15.8781 7.82898 16.9864 8.79732 17.5464C9.77732 18.0948 11.014 17.9781 12.274 17.2198L13.7906 16.3098C13.884 16.2631 14.1173 16.2631 14.1873 16.2981L15.7273 17.2198C16.5673 17.7214 17.2906 17.8848 17.874 17.8848C18.4806 17.8848 18.9473 17.6981 19.2273 17.5348C20.1723 16.9864 20.709 15.8781 20.709 14.4898V4.1298C20.709 3.27814 21.6073 2.6948 22.3656 3.06814C24.4773 4.0948 25.6673 6.20647 25.6673 9.11147Z" fill="currentColor"/>
<path d="M17.791 2.33337C18.4327 2.33337 18.9577 2.85837 18.9577 3.50004V14.49C18.9577 15.2367 18.736 15.7967 18.351 16.0184C17.9543 16.2517 17.3243 16.135 16.6243 15.715L15.0843 14.7934C14.4893 14.4317 13.5093 14.4317 12.9143 14.7934L11.3743 15.715C10.6743 16.135 10.0443 16.24 9.64768 16.0184C9.26268 15.7967 9.04102 15.2367 9.04102 14.49V3.50004C9.04102 2.85837 9.56602 2.33337 10.2077 2.33337H17.791Z" fill="currentColor"/>
</svg>
