<svg width="28" height="28" viewBox="0 0 28 28" fill="none" xmlns="http://www.w3.org/2000/svg">
<path d="M23.5757 9.12497L14.5924 14.3283C14.2307 14.5383 13.7757 14.5383 13.4024 14.3283L4.41899 9.12497C3.77732 8.75164 3.61399 7.87664 4.10399 7.32831C4.44232 6.94331 4.82732 6.62831 5.23565 6.40664L11.559 2.90664C12.9124 2.14831 15.1057 2.14831 16.459 2.90664L22.7824 6.40664C23.1907 6.62831 23.5757 6.95497 23.914 7.32831C24.3807 7.87664 24.2174 8.75164 23.5757 9.12497Z" fill="currentColor"/>
<path d="M13.3349 16.4953V24.452C13.3349 25.3387 12.4366 25.922 11.6432 25.537C9.2399 24.3587 5.19156 22.1537 5.19156 22.1537C3.76823 21.3487 2.60156 19.3187 2.60156 17.6503V11.6303C2.60156 10.7087 3.5699 10.1253 4.36323 10.5803L12.7516 15.4453C13.1016 15.667 13.3349 16.0637 13.3349 16.4953Z" fill="currentColor"/>
<path d="M14.666 16.4953V24.452C14.666 25.3387 15.5643 25.922 16.3577 25.537C18.761 24.3587 22.8093 22.1537 22.8093 22.1537C24.2327 21.3487 25.3993 19.3187 25.3993 17.6503V11.6303C25.3993 10.7087 24.431 10.1253 23.6377 10.5803L15.2493 15.4453C14.8993 15.667 14.666 16.0637 14.666 16.4953Z" fill="currentColor"/>
</svg>
