<svg width="28" height="28" viewBox="0 0 28 28" fill="none" xmlns="http://www.w3.org/2000/svg">
<path d="M18.889 2.33337H9.11232C4.86565 2.33337 2.33398 4.86504 2.33398 9.11171V18.8884C2.33398 23.135 4.86565 25.6667 9.11232 25.6667H18.889C23.1357 25.6667 25.6673 23.135 25.6673 18.8884V9.11171C25.6673 4.86504 23.1357 2.33337 18.889 2.33337ZM9.04232 15.8667C9.04232 16.345 8.64565 16.7417 8.16732 16.7417C7.68898 16.7417 7.29232 16.345 7.29232 15.8667V12.1334C7.29232 11.655 7.68898 11.2584 8.16732 11.2584C8.64565 11.2584 9.04232 11.655 9.04232 12.1334V15.8667ZM14.8757 17.8967C14.8757 18.375 14.479 18.7717 14.0007 18.7717C13.5223 18.7717 13.1257 18.375 13.1257 17.8967V10.1034C13.1257 9.62504 13.5223 9.22837 14.0007 9.22837C14.479 9.22837 14.8757 9.62504 14.8757 10.1034V17.8967ZM20.709 15.8667C20.709 16.345 20.3123 16.7417 19.834 16.7417C19.3556 16.7417 18.959 16.345 18.959 15.8667V12.1334C18.959 11.655 19.3556 11.2584 19.834 11.2584C20.3123 11.2584 20.709 11.655 20.709 12.1334V15.8667Z" fill="currentColor"/>
</svg>
