<svg width="16" height="16" viewBox="0 0 16 16" fill="none" xmlns="http://www.w3.org/2000/svg">
<g clip-path="url(#clip0_854_28879)">
<path d="M7.33594 2.66663H2.66927C2.31565 2.66663 1.97651 2.8071 1.72646 3.05715C1.47641 3.3072 1.33594 3.64634 1.33594 3.99996V13.3333C1.33594 13.6869 1.47641 14.0261 1.72646 14.2761C1.97651 14.5262 2.31565 14.6666 2.66927 14.6666H12.0026C12.3562 14.6666 12.6954 14.5262 12.9454 14.2761C13.1955 14.0261 13.3359 13.6869 13.3359 13.3333V8.66663" stroke="currentColor" stroke-linecap="round" stroke-linejoin="round"/>
<path d="M12.3359 1.66665C12.6012 1.40144 12.9609 1.25244 13.3359 1.25244C13.711 1.25244 14.0707 1.40144 14.3359 1.66665C14.6012 1.93187 14.7502 2.29158 14.7502 2.66665C14.7502 3.04173 14.6012 3.40144 14.3359 3.66665L8.0026 9.99999L5.33594 10.6667L6.0026 7.99999L12.3359 1.66665Z" stroke="currentColor" stroke-linecap="round" stroke-linejoin="round"/>
</g>
<defs>
<clipPath id="clip0_854_28879">
<rect width="16" height="16" fill="currentColor"/>
</clipPath>
</defs>
</svg>
