<svg width="28" height="28" viewBox="0 0 28 28" fill="none" xmlns="http://www.w3.org/2000/svg">
<path d="M24.6173 9.18171C25.294 8.43504 25.6673 7.46671 25.6673 6.45171C25.6673 4.17671 23.824 2.33337 21.549 2.33337C20.534 2.33337 19.5773 2.70671 18.8307 3.38337C17.3257 2.68337 15.704 2.33337 14.0007 2.33337C12.3323 2.33337 10.6757 2.69504 9.18232 3.38337C8.43565 2.70671 7.46732 2.33337 6.45232 2.33337C4.17732 2.33337 2.33398 4.17671 2.33398 6.45171C2.33398 7.46671 2.70732 8.43504 3.38398 9.18171C2.69565 10.675 2.33398 12.3317 2.33398 14C2.33398 15.7034 2.68398 17.325 3.38398 18.83C2.70732 19.5767 2.33398 20.5334 2.33398 21.5484C2.33398 23.8234 4.17732 25.6667 6.45232 25.6667C7.46732 25.6667 8.43565 25.2934 9.18232 24.6167C10.6757 25.305 12.3323 25.6667 14.0007 25.6667C15.704 25.6667 17.3257 25.3167 18.8307 24.6167C19.5773 25.2934 20.534 25.6667 21.549 25.6667C23.824 25.6667 25.6673 23.8234 25.6673 21.5484C25.6673 20.5334 25.294 19.5767 24.6173 18.83C25.3173 17.325 25.6673 15.7034 25.6673 14C25.6673 12.3317 25.3057 10.675 24.6173 9.18171ZM22.9607 17.6984C22.8323 17.6517 22.704 17.605 22.5757 17.57C22.3773 17.5234 22.1673 17.4884 21.969 17.465C21.829 17.4534 21.689 17.4417 21.549 17.4417C19.2857 17.4417 17.4423 19.285 17.4423 21.5484C17.4423 21.6884 17.454 21.8284 17.4657 21.9684C17.489 22.1667 17.524 22.3767 17.5707 22.575C17.6057 22.7034 17.6523 22.8317 17.699 22.96C17.699 22.995 17.7107 23.03 17.734 23.065C17.7457 23.1 17.7573 23.135 17.769 23.17C15.424 24.15 12.624 24.1617 10.2323 23.17C10.244 23.135 10.2557 23.1 10.2673 23.065C10.2907 23.03 10.3023 22.995 10.3023 22.96C10.349 22.8317 10.3956 22.7034 10.4307 22.575C10.4773 22.3767 10.5123 22.1667 10.5357 21.9684C10.5473 21.8284 10.559 21.6884 10.559 21.5484C10.559 19.285 8.71565 17.4417 6.45232 17.4417C6.31232 17.4417 6.17232 17.4534 6.03232 17.465C5.83398 17.4884 5.62398 17.5234 5.42565 17.57C5.29732 17.605 5.16898 17.6517 5.04065 17.6984C5.00565 17.6984 4.97065 17.71 4.93565 17.7334C4.90065 17.745 4.86565 17.7567 4.83065 17.7684C4.32898 16.59 4.08398 15.3184 4.08398 14C4.08398 12.705 4.34065 11.41 4.83065 10.2317C4.84232 10.2317 4.86565 10.2434 4.87732 10.2434C4.73732 10.185 4.58565 10.115 4.45732 10.045C4.27065 9.94004 4.08398 9.82337 3.90898 9.68337C4.25898 9.95171 4.63232 10.1617 5.04065 10.3017C5.18065 10.36 5.33232 10.4067 5.47232 10.4417C5.56565 10.465 5.64732 10.4767 5.72898 10.4884C5.83398 10.5117 5.92732 10.5234 6.03232 10.535C6.17232 10.5467 6.31232 10.5584 6.45232 10.5584C8.71565 10.5584 10.559 8.71504 10.559 6.45171C10.559 6.31171 10.5473 6.17171 10.5357 6.03171C10.524 5.92671 10.5123 5.83337 10.489 5.72837C10.4773 5.64671 10.4657 5.56504 10.4423 5.47171C10.4073 5.33171 10.3607 5.18004 10.3023 5.04004C10.1623 4.63171 9.95232 4.25837 9.68398 3.90837C9.82398 4.08337 9.94065 4.27004 10.0457 4.45671C10.1157 4.58504 10.1857 4.73671 10.244 4.87671C10.244 4.86504 10.2323 4.84171 10.2323 4.83004C12.6123 3.83837 15.424 3.85004 17.769 4.83004C17.7573 4.86504 17.7457 4.90004 17.734 4.93504C17.7107 4.97004 17.699 5.00504 17.699 5.04004C17.6523 5.16837 17.6057 5.29671 17.5707 5.42504C17.524 5.62337 17.489 5.83337 17.4657 6.03171C17.454 6.17171 17.4423 6.31171 17.4423 6.45171C17.4423 8.71504 19.2857 10.5584 21.549 10.5584C21.689 10.5584 21.829 10.5467 21.969 10.535C22.1673 10.5117 22.3773 10.4767 22.5757 10.43C22.704 10.395 22.8323 10.3484 22.9607 10.3017C22.9957 10.3017 23.0307 10.29 23.0657 10.2667C23.1007 10.255 23.1357 10.2434 23.1707 10.2317C23.6607 11.41 23.9173 12.705 23.9173 14C23.9173 15.3184 23.6723 16.59 23.1707 17.7684C23.1357 17.7567 23.1007 17.745 23.0657 17.7334C23.0307 17.71 22.9957 17.6984 22.9607 17.6984Z" fill="currentColor"/>
</svg>
