<svg width="28" height="28" viewBox="0 0 28 28" fill="none" xmlns="http://www.w3.org/2000/svg">
<path d="M24.5007 8.77337V15.6334C24.5007 16.03 24.1157 16.31 23.7423 16.1934L19.1573 14.77C17.8973 14.385 16.544 14.7117 15.6223 15.6334C14.689 16.5667 14.3507 17.9317 14.7473 19.1917L16.159 23.7417C16.2757 24.115 15.9957 24.5 15.599 24.5H8.77398C4.74898 24.5 2.33398 22.0967 2.33398 18.06V8.77337C2.33398 4.73671 4.74898 2.33337 8.77398 2.33337H18.0606C22.0856 2.33337 24.5007 4.73671 24.5007 8.77337Z" fill="currentColor"/>
<path d="M25.6206 21.9783L23.7189 22.6199C23.1939 22.7949 22.7739 23.2033 22.5989 23.7399L21.9573 25.6416C21.4089 27.2866 19.0989 27.2516 18.5856 25.6066L16.4273 18.6649C16.0073 17.2883 17.2789 16.0049 18.6439 16.4366L25.5973 18.5949C27.2306 19.1083 27.2539 21.4299 25.6206 21.9783Z" fill="currentColor"/>
</svg>
