<svg width="20" height="20" viewBox="0 0 20 20" fill="none" xmlns="http://www.w3.org/2000/svg">
<g clip-path="url(#clip0_433_24013)">
<path d="M7.49935 18.3337C7.95959 18.3337 8.33268 17.9606 8.33268 17.5003C8.33268 17.0401 7.95959 16.667 7.49935 16.667C7.03911 16.667 6.66602 17.0401 6.66602 17.5003C6.66602 17.9606 7.03911 18.3337 7.49935 18.3337Z" fill="white" stroke="white" stroke-width="1.2" stroke-linecap="round" stroke-linejoin="round"/>
<path d="M16.6673 18.3337C17.1276 18.3337 17.5007 17.9606 17.5007 17.5003C17.5007 17.0401 17.1276 16.667 16.6673 16.667C16.2071 16.667 15.834 17.0401 15.834 17.5003C15.834 17.9606 16.2071 18.3337 16.6673 18.3337Z" fill="white" stroke="white" stroke-width="1.2" stroke-linecap="round" stroke-linejoin="round"/>
<path d="M0.833984 0.833008H4.16732L6.40065 11.9913C6.47686 12.375 6.68557 12.7196 6.99027 12.9649C7.29497 13.2102 7.67623 13.3405 8.06732 13.333H16.1673C16.5584 13.3405 16.9397 13.2102 17.2444 12.9649C17.5491 12.7196 17.7578 12.375 17.834 11.9913L19.1673 4.99967H5.00065" stroke="white" stroke-width="1.7" stroke-linecap="round" stroke-linejoin="round"/>
</g>
<defs>
<clipPath id="clip0_433_24013">
<rect width="20" height="20" fill="white"/>
</clipPath>
</defs>
</svg>
