<svg width="20" height="20" viewBox="0 0 20 20" fill="none" xmlns="http://www.w3.org/2000/svg">
<path d="M3.33984 17.5C3.70645 16.0298 4.54622 14.7208 5.72983 13.7747C6.91345 12.8286 8.37526 12.2978 9.89015 12.2642C11.405 12.2305 12.889 12.6957 14.1135 13.5883C15.338 14.4808 16.2351 15.7512 16.6667 17.2037" stroke="currentColor" stroke-width="1.70343" stroke-linecap="round" stroke-linejoin="round"/>
<path d="M10.3362 9.36938H9.66766C8.83003 9.36938 8.02672 9.03664 7.43443 8.44435C6.84214 7.85207 6.50939 7.04875 6.50939 6.21112V5.92204C6.50939 5.01446 6.86993 4.14403 7.51169 3.50227C8.15345 2.86051 9.02386 2.49998 9.93145 2.49998C10.4 2.4995 10.864 2.59144 11.2969 2.77051C11.7298 2.94958 12.1232 3.21227 12.4545 3.54356C12.7858 3.87484 13.0485 4.2682 13.2275 4.70114C13.4066 5.13407 13.4985 5.59807 13.498 6.06657V6.21112C13.498 7.04875 13.1653 7.85207 12.573 8.44435C11.9807 9.03664 11.1774 9.36938 10.3398 9.36938H10.3362Z" stroke="currentColor" stroke-width="1.70343" stroke-linecap="round" stroke-linejoin="round"/>
</svg>
