<svg width="16" height="16" viewBox="0 0 16 16" fill="none" xmlns="http://www.w3.org/2000/svg">
<path d="M11.3307 14V12.6667C11.3307 11.9594 11.0498 11.2811 10.5497 10.781C10.0496 10.281 9.37131 10 8.66406 10H3.33073C2.62349 10 1.94521 10.281 1.44511 10.781C0.945014 11.2811 0.664063 11.9594 0.664062 12.6667V14" stroke="currentColor" stroke-linecap="round" stroke-linejoin="round"/>
<path d="M6.0026 7.33333C7.47536 7.33333 8.66927 6.13943 8.66927 4.66667C8.66927 3.19391 7.47536 2 6.0026 2C4.52984 2 3.33594 3.19391 3.33594 4.66667C3.33594 6.13943 4.52984 7.33333 6.0026 7.33333Z" stroke="currentColor" stroke-linecap="round" stroke-linejoin="round"/>
<path d="M15.3359 14V12.6667C15.3355 12.0758 15.1388 11.5019 14.7768 11.0349C14.4149 10.5679 13.908 10.2344 13.3359 10.0867" stroke="currentColor" stroke-linecap="round" stroke-linejoin="round"/>
<path d="M10.6641 2.08667C11.2377 2.23354 11.7461 2.56714 12.1092 3.03488C12.4722 3.50262 12.6693 4.07789 12.6693 4.67C12.6693 5.26212 12.4722 5.83739 12.1092 6.30513C11.7461 6.77287 11.2377 7.10647 10.6641 7.25334" stroke="currentColor" stroke-linecap="round" stroke-linejoin="round"/>
</svg>
