<svg width="224" height="74" viewBox="0 0 224 74" fill="none" xmlns="http://www.w3.org/2000/svg">
<path d="M46.978 40.1755C46.978 38.133 47.2598 36.2313 47.8936 34.6114C48.5275 32.9914 49.3023 31.5828 50.3588 30.4559C51.4152 29.329 52.683 28.4133 54.2325 27.8499C55.7116 27.216 57.402 26.9343 59.2332 26.9343C61.1349 26.9343 62.7548 27.216 64.2339 27.709C65.713 28.2725 66.9807 28.9768 67.9668 29.822C69.0233 30.7376 69.798 31.7941 70.3615 32.9914C70.9249 34.1888 71.2067 35.527 71.2067 36.8652C71.2067 37.3582 71.2067 37.7808 71.1362 38.0625C71.0658 38.4147 70.9954 38.6964 70.9954 38.9781C70.9249 39.3303 70.7841 39.612 70.7841 39.8233C69.305 40.1051 67.7555 40.3868 66.1355 40.5277C64.7269 40.7389 63.107 40.8798 61.2757 41.0207C59.4445 41.1615 57.5428 41.232 55.5707 41.232C55.5707 43.2745 55.7116 45.0353 55.9933 46.3735C56.2751 47.7821 56.6977 48.8386 57.2611 49.6838C57.7541 50.529 58.388 51.0925 59.1628 51.4446C59.8671 51.7968 60.7123 51.9376 61.5575 51.9376C62.5435 51.9376 63.4591 51.7263 64.3747 51.3742C65.2904 51.022 65.9947 50.529 66.699 49.8951C67.3329 49.2612 67.8963 48.5569 68.2485 47.7821C68.6007 47.0074 68.812 46.2326 68.812 45.3875H70.0797C70.0797 46.3735 69.8684 47.3596 69.3754 48.2752C68.9528 49.1908 68.3189 50.036 67.4738 50.7403C66.6286 51.4446 65.6425 52.0081 64.4452 52.5011C63.3183 52.9237 61.9801 53.135 60.5714 53.135C56.3455 53.135 53.0352 51.9376 50.6405 49.6134C48.1754 47.5709 46.978 44.331 46.978 40.1755ZM55.4299 40.1755C56.5568 40.1755 57.5428 40.1755 58.4585 40.1051C59.3036 40.0346 60.0784 40.0346 60.6418 39.9642C61.3462 39.8938 61.9096 39.8233 62.4731 39.7529C62.5435 39.4007 62.6139 39.0486 62.6844 38.626C62.7548 38.2738 62.8252 37.8512 62.8252 37.4286C62.8957 37.006 62.8957 36.513 62.8957 36.02C62.8957 34.5409 62.7548 33.2732 62.5435 32.2871C62.3322 31.3011 62.0505 30.4559 61.6983 29.822C61.3462 29.1881 60.9236 28.7655 60.501 28.4838C60.0784 28.202 59.5854 28.0612 59.1628 28.0612C58.7402 28.0612 58.2472 28.202 57.8246 28.5542C57.402 28.8359 56.9794 29.4698 56.6272 30.3854C56.2751 31.3011 55.9933 32.4984 55.782 34.1183C55.5707 35.527 55.4299 37.6399 55.4299 40.1755Z" fill="white"/>
<path d="M74.9395 52.7124V51.9377L77.968 51.2333V29.1881L74.9395 28.4838V27.709H79.4471C80.6445 27.709 81.5601 27.9203 82.3348 28.2725C83.1096 28.6951 83.673 29.1177 84.0956 29.6107C84.5886 30.1742 84.9408 30.808 85.2225 31.4419C85.7156 30.7376 86.3494 30.0333 87.0538 29.4698C87.6877 28.9768 88.4624 28.4838 89.378 28.0612C90.2936 27.6386 91.3501 27.4273 92.6179 27.4273C94.4491 27.4273 95.7873 27.8499 96.6325 28.6951C97.4777 29.5403 97.9003 30.6672 97.9003 32.1463C97.9003 33.2732 97.5481 34.1888 96.8438 34.8931C96.1395 35.5974 95.2239 35.9496 94.097 35.9496C93.8152 35.9496 93.6039 35.9496 93.3222 35.9496C93.0405 35.9496 92.8292 35.8792 92.6883 35.8792C92.477 35.8792 92.2657 35.8087 92.0544 35.7383V28.7655C91.0684 28.7655 90.1528 28.9768 89.378 29.3994C88.6033 29.822 87.9694 30.2446 87.4059 30.808C86.772 31.4419 86.279 32.0758 85.786 32.7801V51.1629L88.8146 51.8672V52.642H74.9395V52.7124Z" fill="white"/>
<path d="M100.084 40.1755C100.084 36.02 101.281 32.7801 103.606 30.4559C106 28.1316 109.311 26.9343 113.536 26.9343C115.156 26.9343 116.565 27.0751 117.762 27.4273C118.96 27.709 119.875 28.1316 120.65 28.6951C121.425 29.1881 121.918 29.822 122.27 30.4559C122.622 31.0898 122.763 31.7941 122.763 32.4984C122.763 33.6253 122.411 34.5409 121.707 35.2452C121.002 35.9496 120.087 36.2313 118.96 36.2313C118.678 36.2313 118.467 36.2313 118.185 36.2313C117.903 36.2313 117.692 36.1609 117.551 36.1609C117.34 36.1609 117.129 36.0904 116.917 36.02V28.4838C116.706 28.4133 116.495 28.3429 116.213 28.202C116.002 28.1316 115.72 28.0612 115.438 28.0612C115.156 27.9907 114.804 27.9907 114.452 27.9907C113.607 27.9907 112.762 28.202 112.057 28.5542C111.283 28.9064 110.719 29.5403 110.156 30.4559C109.663 31.3715 109.24 32.6393 108.888 34.1888C108.606 35.7383 108.465 37.7808 108.465 40.1755C108.465 42.4997 108.606 44.4718 108.888 46.0213C109.17 47.5709 109.592 48.7682 110.156 49.6838C110.649 50.5994 111.283 51.2333 112.057 51.5855C112.762 51.9376 113.607 52.1489 114.452 52.1489C115.438 52.1489 116.354 51.9376 117.269 51.5855C118.185 51.2333 118.889 50.7403 119.594 50.1064C120.228 49.4725 120.791 48.7682 121.143 47.9934C121.495 47.2187 121.707 46.4439 121.707 45.5988H122.974C122.974 46.5848 122.763 47.5709 122.27 48.4865C121.847 49.4021 121.214 50.2473 120.368 50.9516C119.523 51.6559 118.537 52.2194 117.34 52.7124C116.213 53.135 114.875 53.3463 113.466 53.3463C109.24 53.3463 105.93 52.1489 103.535 49.8247C101.281 47.5709 100.084 44.331 100.084 40.1755Z" fill="white"/>
<path d="M125.792 28.4838V27.709H132.271C135.229 27.709 136.779 29.1881 136.779 32.2167V45.1762C136.779 46.3031 136.92 47.2892 137.131 48.1343C137.342 48.9795 137.624 49.6134 137.976 50.1769C138.328 50.6699 138.751 51.0925 139.174 51.3742C139.596 51.6559 140.089 51.7264 140.512 51.7264C141.287 51.7264 141.92 51.5151 142.484 51.0925C143.047 50.6699 143.47 50.2473 143.893 49.6838C144.315 49.05 144.738 48.4161 145.019 47.7117V29.1881L141.991 28.4838V27.709H155.936V28.4838L152.908 29.1881V52.9237H152.415C150.936 52.9237 149.809 52.7124 148.893 52.2898C147.978 51.8672 147.344 51.4446 146.851 50.8812C146.287 50.2473 145.865 49.6134 145.653 48.9091C145.231 49.7543 144.667 50.529 144.033 51.1629C143.47 51.7264 142.695 52.2194 141.78 52.7124C140.864 53.2054 139.737 53.4167 138.399 53.4167C136.99 53.4167 135.652 53.2054 134.455 52.7124C133.257 52.2194 132.271 51.6559 131.356 50.8812C130.51 50.1064 129.806 49.2613 129.384 48.2752C128.891 47.2892 128.679 46.3031 128.679 45.2466V29.1881L125.792 28.4838Z" fill="white"/>
<path d="M158.965 52.7124V51.9377L161.993 51.2333V29.1881L158.965 28.4838V27.709H163.473C164.67 27.709 165.585 27.9203 166.36 28.2725C167.135 28.6951 167.698 29.1177 168.121 29.6107C168.614 30.1742 168.966 30.808 169.248 31.4419C169.741 30.7376 170.375 30.0333 171.079 29.4698C171.713 28.9768 172.488 28.4838 173.403 28.0612C174.319 27.6386 175.376 27.4273 176.643 27.4273C178.475 27.4273 179.813 27.8499 180.658 28.6951C181.503 29.5403 181.926 30.6672 181.926 32.1463C181.926 33.2732 181.574 34.1888 180.869 34.8931C180.165 35.5974 179.249 35.9496 178.122 35.9496C177.841 35.9496 177.629 35.9496 177.348 35.9496C177.066 35.9496 176.855 35.8792 176.714 35.8792C176.502 35.8792 176.291 35.8087 176.08 35.7383V28.7655C175.094 28.7655 174.178 28.9768 173.403 29.3994C172.629 29.822 171.995 30.2446 171.431 30.808C170.797 31.4419 170.304 32.0758 169.811 32.7801V51.1629L172.84 51.8672V52.642H158.965V52.7124Z" fill="white"/>
<path d="M181.151 28.4838V27.709H187.419C188.335 27.709 189.18 27.8499 189.884 28.0612C190.589 28.2725 191.223 28.5542 191.716 28.9064C192.209 29.2586 192.702 29.6811 193.124 30.2446C193.547 30.7376 193.899 31.3011 194.251 31.935L200.52 43.4858L205.732 29.9629L201.999 28.4838V27.709H211.225V28.4838L207.211 29.9629L197.209 55.6706C196.153 58.4174 195.026 60.3895 193.758 61.5869C192.561 62.7842 191.223 63.3477 189.673 63.3477C188.194 63.3477 186.997 62.9251 186.222 62.1503C185.377 61.3756 184.954 60.2486 184.954 58.84C184.954 57.5722 185.306 56.5862 186.011 55.8819C186.715 55.1775 187.56 54.8254 188.687 54.8254C188.969 54.8254 189.18 54.8254 189.391 54.8958C189.603 54.8958 189.814 54.9662 190.025 54.9662C190.237 54.9662 190.448 55.0367 190.659 55.0367V61.7982C191.082 61.7277 191.504 61.5869 191.927 61.3756C192.35 61.1643 192.772 60.8121 193.124 60.3191C193.547 59.8261 193.899 59.1922 194.322 58.4878C194.744 57.7131 195.167 56.7975 195.66 55.6706L196.646 53.135L183.686 29.1881L181.151 28.4838Z" fill="white"/>
<path d="M222.424 13.8339V59.6852" stroke="white" stroke-width="1.635" stroke-miterlimit="10"/>
<path d="M32.4689 6.9316C33.1028 14.9609 32.3985 18.9755 32.3985 19.1163C32.3985 19.5389 32.3281 19.6094 32.3281 20.1024C32.3281 20.5954 32.3281 20.8771 32.2576 21.2293C32.1872 21.9336 32.1872 22.6379 32.1168 23.3423C32.0463 24.6805 31.835 26.1595 31.6942 27.5682C31.2011 32.0758 30.4264 39.0486 29.3699 43.4858C28.1021 49.1908 27.8204 50.7403 25.9892 56.0227C25.7779 56.5862 25.5666 57.2201 25.3553 57.7131C24.2988 60.1078 23.3832 62.2912 22.045 64.6154C21.4815 65.6719 20.9181 66.7988 20.0024 68.2779C18.8051 70.25 17.7486 71.9404 16.833 73.1377C18.0304 73.1377 19.932 72.9969 21.9745 72.0812C25.9187 70.3204 27.75 66.9397 28.243 65.8832C30.849 61.446 32.1168 58.2061 33.6663 52.7829C35.9201 44.9649 35.8497 43.6971 37.1879 35.1044C37.4696 33.3436 37.9626 29.8924 38.1035 28.0612C38.1739 27.216 38.2444 26.5117 38.3148 25.6665C38.9487 20.8067 39.2304 16.6512 39.7939 11.1575C39.8643 10.4532 39.9347 9.60802 40.0756 8.62197C40.2869 6.79074 39.4417 4.9595 37.8922 3.97346C36.061 2.77611 34.2297 1.50833 32.3281 0.31099C31.9759 0.0996936 31.4829 0.381422 31.5533 0.804014C32.1168 3.1987 32.3281 5.31167 32.4689 6.9316Z" fill="white"/>
<path d="M15.4245 14.7496L15.2132 18.7642C15.0723 19.9615 15.0019 21.4406 14.861 22.7084C14.5793 25.1735 14.2272 27.9204 13.875 30.3855C13.1707 35.2453 12.2551 40.5277 10.4238 47.2187C9.29691 51.1629 8.45173 54.1915 6.69092 58.2061C4.50753 63.2068 1.97198 67.151 0.0703125 69.757C4.01451 69.4048 6.33876 67.9962 7.60654 67.0806C10.8464 64.6154 12.2551 60.953 14.7202 54.3324C15.4949 52.2194 16.2697 49.8247 16.2697 49.8247C16.6923 48.4865 17.0444 47.0779 17.467 45.3875C17.9601 43.4858 18.8052 39.8234 19.1574 37.9217C19.6504 35.3157 20.2139 32.7802 20.6365 30.1742C21.0591 27.4978 21.6225 24.8918 21.9747 22.1449C22.0451 21.3702 22.5381 19.1163 22.9607 16.1582C23.172 14.3974 23.3129 13.4818 23.2425 13.0592C22.7494 10.1715 18.3826 8.05851 15.4245 7.21333C15.2132 7.1429 15.0723 7.28376 15.0723 7.49506C15.0723 9.81931 15.2836 12.4253 15.4245 14.7496Z" fill="white"/>
<path d="M24.0174 53.2054C24.2287 53.135 24.2287 52.9941 25.1443 50.5994C25.5669 49.4725 25.8487 48.6274 26.06 48.2048C25.0035 47.5709 23.8766 46.6553 22.8201 45.3875C19.2281 41.0207 19.6506 35.527 19.7915 34.1183C19.5098 35.3157 19.1576 37.0061 18.9463 39.0486C18.8055 40.3164 18.6646 41.5137 18.6646 42.0067C18.3829 47.2891 22.6792 53.628 24.0174 53.2054Z" fill="white"/>
<path d="M46.9077 73.2082C47.2599 73.0673 47.3303 72.7856 49.0911 67.0101C49.8659 64.4042 50.4998 62.4321 50.8519 61.3051C48.8094 59.8261 46.4851 57.7131 44.3017 54.6845C37.0472 44.331 37.9629 31.5828 38.315 28.1317C37.7516 30.8785 37.1177 34.8227 36.6246 39.6825C36.3429 42.7111 36.1316 45.4579 36.0612 46.6553C35.6386 59.1922 44.0904 74.1942 46.9077 73.2082Z" fill="white"/>
</svg>
