<svg width="83" height="83" viewBox="0 0 83 83" fill="none" xmlns="http://www.w3.org/2000/svg">
<path d="M35.9512 18.693C35.9512 22.7781 36.7259 25.3841 38.0641 28.624C38.5572 29.8213 39.3319 31.2299 40.1067 32.1456C41.6562 34.1177 43.1352 33.9064 43.1352 32.6386C43.1352 30.6665 42.5718 29.3283 42.8535 27.2858C43.417 23.2711 49.7559 21.0173 49.7559 16.2279C49.7559 12.8472 48.6994 12.9176 48.6994 9.18472C48.6994 8.19867 48.9811 7.56478 49.4037 6.93089C49.6854 6.5083 50.4602 5.59268 50.8123 5.31095C51.3054 4.88836 51.7984 4.32491 52.2914 3.90231C54.2635 2.35281 53.7001 1.36676 52.5731 1.36676C50.5306 1.36676 45.3891 3.26843 43.3465 4.7475C42.9239 5.09966 42.5718 5.31095 42.1492 5.66312C40.318 7.07176 38.5572 9.67774 37.6415 11.8611C37.0076 13.4106 35.9512 16.5801 35.9512 18.693Z" stroke="white" stroke-width="1.635" stroke-miterlimit="10"/>
<path d="M26.7246 51.937C22.9213 51.937 19.9631 50.8805 16.8641 52.7117C13.9764 54.4725 13.2017 59.2619 8.83488 59.2619C6.2289 59.2619 3.34117 58.5576 2.98901 59.4732C2.84815 59.7549 2.98902 60.0366 3.12988 60.2479C3.34118 60.4592 3.62292 60.741 3.97508 61.0227C4.39767 61.3749 5.17241 62.0087 6.65148 62.9244C7.42624 63.347 8.20099 63.7695 9.5392 64.4034C14.6103 66.8686 20.3153 65.6712 25.1047 63.2061C26.7246 62.3609 27.5698 61.6566 28.8376 60.3184C29.6123 59.6141 30.2462 58.7689 30.8801 57.9237C31.514 57.0785 32.0774 56.2333 32.6409 55.2473C33.4861 53.9091 34.9652 50.81 34.9652 48.7675C34.9652 47.9928 34.613 47.0771 33.9087 47.0771C33.1339 47.0771 31.3731 49.5423 29.9645 50.5988C29.1193 51.4439 27.922 51.937 26.7246 51.937Z" stroke="white" stroke-width="1.635" stroke-miterlimit="10"/>
<path d="M1.01709 29.1874C1.01709 32.3568 2.21444 34.822 2.21444 34.822C3.90481 39.8931 7.07424 43.2034 12.2158 45.3163C16.5121 47.0771 19.259 47.1476 23.7666 46.232C25.8796 45.8094 32.6411 43.7668 32.6411 41.3721C32.6411 39.9635 30.3872 40.527 29.4716 40.527C26.2318 40.5974 24.8936 40.3861 22.5693 37.8505C20.5972 35.7376 18.9068 32.709 14.9626 32.709C13.9766 32.709 13.2723 32.9203 12.3567 33.0612C10.7367 33.4133 10.6663 33.4133 9.04634 33.4133C6.51078 33.4133 3.13006 28.0605 1.79185 28.0605C1.43969 28.0605 1.22838 28.2014 1.22838 28.2014C1.22838 28.3422 1.01709 28.5535 1.01709 29.1874Z" stroke="white" stroke-width="1.635" stroke-miterlimit="10"/>
<path d="M49.6152 42.7808C49.6152 43.7668 50.7421 43.626 51.7282 43.626C52.3621 43.626 52.5029 43.5555 53.0664 43.4851C56.588 43.4147 57.2219 43.8373 59.4757 46.0207C60.3209 46.8659 61.2365 48.1336 61.8 48.6267C63.0677 49.8944 64.8285 51.2326 66.7302 51.2326C69.8997 51.2326 69.7588 50.81 71.8013 50.5987C75.2525 50.317 76.309 51.5848 78.4924 54.3317C78.9854 54.9655 79.6193 55.9516 80.4645 55.9516C82.2957 55.9516 80.2532 49.8944 79.9714 48.9788C79.6193 47.8519 79.1263 46.725 78.5628 45.8094C78.2811 45.3164 77.9993 44.8938 77.6472 44.4007C76.7316 43.133 75.4638 41.8652 74.196 40.9496C73.3508 40.3861 72.2239 39.6114 71.2379 39.2592C70.111 38.8366 69.1249 38.3436 67.9276 37.9914C63.4903 36.6532 59.5461 37.3575 55.1794 38.7662C53.5594 39.3296 49.6152 40.9496 49.6152 42.7808Z" stroke="white" stroke-width="1.635" stroke-miterlimit="10"/>
<path d="M47.291 34.822C47.291 36.7941 48.1362 37.8506 49.6857 36.0194C49.897 35.8081 50.0379 35.5263 50.2491 35.315C50.4604 35.0333 50.6013 34.822 50.8126 34.5403C51.2352 33.9768 52.2213 32.9908 52.7847 32.6386C53.0664 32.4273 53.3482 32.3569 53.7003 32.1456C54.4046 31.7934 54.8977 31.723 55.8133 31.6526C57.2923 31.4413 59.3349 31.6526 61.0253 31.5821C64.1243 31.4413 65.8146 29.8918 67.2937 27.4266C69.6884 23.412 70.3223 22.7781 74.9004 22.8486C75.5343 22.8486 76.9429 23.1303 77.7176 22.8486C78.6333 22.5668 78.8446 21.7217 77.5064 20.8765C71.3083 16.8618 66.0259 15.5236 58.9123 18.6931C57.8558 19.1861 55.4611 20.5947 54.6159 21.2991C52.2213 23.2712 50.2492 26.5815 48.9109 29.3987C48.6292 29.9622 48.4884 30.4552 48.2771 31.0187C47.7136 32.0047 47.291 33.6951 47.291 34.822Z" stroke="white" stroke-width="1.635" stroke-miterlimit="10"/>
<path d="M16.3008 16.3688C16.3008 18.4817 16.3008 19.6791 17.0051 21.792C17.2164 22.4259 17.3573 22.8485 17.5685 23.412C18.3433 25.3841 19.5406 27.497 20.9493 29.117C22.7101 31.1595 25.0344 32.709 27.4995 33.9063C29.1898 34.7515 32.0071 36.0193 34.4018 36.0193C35.4583 36.0193 37.1487 35.2446 35.247 33.695C32.9932 31.7934 30.8098 30.5256 30.8098 26.7927C30.8098 23.8346 31.2324 22.0033 30.2463 19.6086C29.4716 17.6365 27.9925 16.7209 26.2317 15.6644C25.1048 14.9601 24.2596 14.5375 23.4848 13.4811C21.4423 10.9455 22.2875 6.86044 22.4988 5.87439C22.7805 4.32489 23.2736 3.33884 22.9918 3.19797C22.6397 2.98668 21.3719 4.46575 20.4563 5.73353L18.8363 8.33951C17.5685 10.2412 16.3008 13.6923 16.3008 16.3688Z" stroke="white" stroke-width="1.635" stroke-miterlimit="10"/>
<path d="M46.1641 48.9788C46.1641 50.7396 49.0518 51.1622 50.7421 54.1908C52.3621 57.149 49.9674 63.0652 52.9255 66.3051C55.7428 69.3337 59.7574 69.4041 59.7574 74.1231C59.7574 75.25 59.5462 78.2081 59.6166 78.6307C59.8983 79.8281 60.8844 79.6872 61.6591 78.5603C61.9408 78.1377 62.2226 77.7151 62.5043 77.2925C63.0677 76.3769 63.6312 75.4613 64.0538 74.5457C66.6598 68.7702 66.4485 64.4035 63.6312 58.7689C63.0677 57.7124 62.5043 56.7264 61.8 55.7403C59.687 52.923 54.9681 49.9649 51.7282 48.9084C50.8126 48.6267 48.77 47.9928 47.784 48.0632C47.1501 48.1337 46.1641 48.4154 46.1641 48.9788Z" stroke="white" stroke-width="1.635" stroke-miterlimit="10"/>
<path d="M39.5435 55.3177C39.5435 57.9941 37.994 59.4028 36.3036 60.8818C32.5707 64.1921 31.0212 65.319 32.1481 70.8832C32.7116 73.63 32.8524 75.3204 30.8099 77.4334C29.8943 78.349 28.6265 79.1942 27.8518 79.9689C27.6405 80.1802 27.1475 80.5324 27.1475 81.0958C27.1475 81.3071 27.2179 81.448 27.2883 81.5184C28.4152 81.6593 30.0352 81.6593 31.8664 81.3071C35.4584 80.6732 37.9236 78.9124 39.0505 78.0672C41.093 76.4473 42.7834 74.2639 43.9807 71.6579C44.8259 69.8267 45.812 66.8685 45.812 64.7556C45.812 61.0227 45.4598 59.121 44.3329 55.7403C43.7694 54.1204 42.1495 50.317 40.3887 50.317C39.0505 50.317 39.6139 52.7821 39.6844 53.7682C39.5435 54.3316 39.5435 54.8247 39.5435 55.3177Z" stroke="white" stroke-width="1.635" stroke-miterlimit="10"/>
</svg>
