<svg width="10" height="10" viewBox="0 0 10 10" fill="none" xmlns="http://www.w3.org/2000/svg">
<path d="M9.99978 4.57808C9.99978 7.18407 7.95724 9.15617 5.35126 9.15617C2.74527 9.15617 0.632324 7.11364 0.632324 4.57808C0.632324 2.04253 2.74527 0 5.35126 0C8.02768 0 9.99978 2.04253 9.99978 4.57808ZM1.82966 4.57808C1.82966 6.62061 3.30873 8.24055 5.35126 8.24055C7.32336 8.24055 8.80245 6.62061 8.80245 4.64851C8.80245 2.60599 7.32337 0.986049 5.28084 0.986049C3.37918 0.915616 1.82966 2.53555 1.82966 4.57808ZM4.64694 6.90234H3.59046V2.39469C4.01305 2.32426 4.57651 2.25383 5.35126 2.25383C6.19644 2.25383 6.61904 2.39469 6.90077 2.60599C7.1825 2.81728 7.32337 3.16944 7.32337 3.59203C7.32337 4.08506 6.90076 4.50765 6.40774 4.64851V4.71895C6.83033 4.85981 7.11207 5.21197 7.25293 5.84586C7.3938 6.55018 7.46423 6.83191 7.60509 6.97277H6.47818C6.33731 6.83191 6.26688 6.40932 6.12602 5.84586C6.05558 5.35284 5.77386 5.14154 5.21041 5.14154H4.71737V6.90234H4.64694ZM4.64694 4.36679H5.13997C5.70343 4.36679 6.19645 4.15549 6.19645 3.7329C6.19645 3.31031 5.91473 3.02858 5.21041 3.02858C4.92868 3.02858 4.71737 3.02858 4.64694 3.09901V4.36679Z" fill="white"/>
</svg>
