<svg width="165" height="150" viewBox="0 0 165 150" fill="none" xmlns="http://www.w3.org/2000/svg">
<circle cx="71.7923" cy="106.376" r="42.6244" stroke="white" stroke-width="0.590886" stroke-linecap="round" stroke-dasharray="2.36 2.36"/>
<circle cx="43.6244" cy="57.4503" r="42.6244" stroke="white" stroke-width="0.590886" stroke-linecap="round" stroke-dasharray="2.36 2.36"/>
<path d="M42.277 36.5458C42.1725 39.9025 39.3667 42.539 36.01 42.4345C32.6533 42.33 30.0169 39.5242 30.1213 36.1675C30.2258 32.8108 33.0316 30.1744 36.3883 30.2789C39.745 30.3833 42.3814 33.1891 42.277 36.5458Z" fill="white" stroke="white" stroke-width="1.18177"/>
<path d="M54.2965 57.3666C54.192 60.7233 51.3862 63.3598 48.0295 63.2553C44.6728 63.1508 42.0364 60.345 42.1409 56.9883C42.2453 53.6316 45.0512 50.9952 48.4078 51.0997C51.7645 51.2041 54.401 54.0099 54.2965 57.3666Z" fill="white" stroke="white" stroke-width="1.18177"/>
<path d="M66.6363 78.733C66.5319 82.0896 63.726 84.7261 60.3694 84.6216C57.0127 84.5171 54.3762 81.7113 54.4807 78.3546C54.5852 74.998 57.391 72.3615 60.7477 72.466C64.1044 72.5705 66.7408 75.3763 66.6363 78.733Z" fill="white" stroke="white" stroke-width="1.18177"/>
<path d="M154.239 35.1362L94.4043 138.772L34.57 35.1362L154.239 35.1362Z" stroke="white" stroke-width="0.590886"/>
</svg>
