<svg width="141" height="141" viewBox="0 0 141 141" fill="none" xmlns="http://www.w3.org/2000/svg">
<ellipse cx="97.2774" cy="43.5234" rx="42.7227" ry="42.5234" stroke="white" stroke-linecap="round" stroke-dasharray="1.51 1.51"/>
<path d="M76.3995 76.8878C76.3995 80.9452 73.0943 84.2383 69.0123 84.2383C64.9302 84.2383 61.625 80.9452 61.625 76.8878C61.625 72.8305 64.9302 69.5374 69.0123 69.5374C73.0943 69.5374 76.3995 72.8305 76.3995 76.8878Z" fill="white" stroke="white"/>
<path d="M123.067 79.5047C123.067 113.189 95.6317 140.5 61.7836 140.5C27.9354 140.5 0.5 113.189 0.5 79.5047C0.5 45.8201 27.9354 18.5094 61.7836 18.5094C95.6317 18.5094 123.067 45.8201 123.067 79.5047Z" stroke="white"/>
<rect x="9.70312" y="28.3224" width="103.506" height="103.019" stroke="white"/>
</svg>
