<svg width="138" height="138" viewBox="0 0 138 138" fill="none" xmlns="http://www.w3.org/2000/svg">
<path d="M111.02 21.7341C80.1229 23.6681 59.5792 23.61 27.8904 21.7129C23.8023 21.4682 20.517 25.0609 21.0854 29.1167C25.3049 59.2218 25.2546 79.0951 21.1179 109.118C20.5435 113.287 24.0323 116.922 28.2192 116.502C58.814 113.44 79.2845 113.454 110.706 116.534C114.864 116.941 118.33 113.348 117.793 109.205C113.936 79.4993 113.932 59.6326 117.856 29.0524C118.374 25.0154 115.082 21.4798 111.02 21.7341Z" stroke="white" stroke-width="0.711352" stroke-dasharray="0.71 0.71"/>
<path d="M132.051 64.7874C108.835 44.3072 94.3499 29.7395 73.284 5.99078C70.5663 2.92696 65.7028 3.14433 63.2369 6.4142C44.9329 30.6854 30.8448 44.7023 6.68999 63.0069C3.33637 65.5483 3.23319 70.5854 6.49008 73.2496C30.2894 92.7179 44.7545 107.203 64.7948 131.599C67.4467 134.827 72.4389 134.737 74.9883 131.427C93.2666 107.696 107.311 93.6447 131.709 74.7958C134.93 72.3074 135.103 67.48 132.051 64.7874Z" stroke="white" stroke-width="0.711352"/>
<circle cx="69.7724" cy="69.65" r="8.13173" fill="white"/>
<circle cx="23.8071" cy="48.4369" r="3.88909" fill="white"/>
<circle cx="115.026" cy="87.3276" r="3.88909" fill="white"/>
</svg>
