<svg width="80" height="80" viewBox="0 0 80 80" fill="none" xmlns="http://www.w3.org/2000/svg">
<path d="M40 68.2407C43.5383 71.4074 48.211 73.333 53.3333 73.333C64.379 73.333 73.3333 64.3787 73.3333 53.333C73.3333 44.014 66.9593 36.1834 58.3333 33.9634" stroke="#333333" stroke-width="2"/>
<path d="M60 26.6667C60 37.7124 51.0457 46.6667 40 46.6667C28.9543 46.6667 20 37.7124 20 26.6667C20 15.621 28.9543 6.66669 40 6.66669C51.0457 6.66669 60 15.621 60 26.6667Z" stroke="white" stroke-width="2"/>
<path d="M21.666 33.9634C13.0399 36.1834 6.66602 44.014 6.66602 53.333C6.66602 64.3787 15.6203 73.333 26.666 73.333C37.7117 73.333 46.666 64.3787 46.666 53.333C46.666 50.8174 46.2017 48.4104 45.3537 46.1927" stroke="white" stroke-width="2"/>
</svg>
