<svg width="80" height="80" viewBox="0 0 80 80" fill="none" xmlns="http://www.w3.org/2000/svg">
<path d="M66.6673 40C66.6673 47.3637 54.7283 53.3333 40.0007 53.3333C25.2731 53.3333 13.334 47.3637 13.334 40" stroke="#333333" stroke-width="2"/>
<path d="M13.334 60V20" stroke="white" stroke-width="2" stroke-linecap="round"/>
<path d="M66.666 20V60" stroke="white" stroke-width="2" stroke-linecap="round"/>
<path d="M40.0007 33.3334C54.7283 33.3334 66.6673 27.3638 66.6673 20C66.6673 12.6362 54.7283 6.66669 40.0007 6.66669C25.2731 6.66669 13.334 12.6362 13.334 20C13.334 27.3638 25.2731 33.3334 40.0007 33.3334Z" stroke="white" stroke-width="2"/>
<path d="M66.6673 60C66.6673 67.3637 54.7283 73.3333 40.0007 73.3333C25.2731 73.3333 13.334 67.3637 13.334 60" stroke="white" stroke-width="2"/>
</svg>
