<svg width="80" height="80" viewBox="0 0 80 80" fill="none" xmlns="http://www.w3.org/2000/svg">
<path d="M16.5954 32.2836C9.97581 29.6358 6.66602 28.3119 6.66602 26.6667C6.66602 25.0215 9.97581 23.6976 16.5954 21.0498L25.957 17.3051C32.5766 14.6573 35.8863 13.3334 39.9993 13.3334C44.1123 13.3334 47.422 14.6573 54.0417 17.3051L63.4033 21.0498C70.023 23.6976 73.3327 25.0215 73.3327 26.6667C73.3327 28.3119 70.023 29.6358 63.4033 32.2836L54.0417 36.0284C47.422 38.676 44.1123 40 39.9993 40C35.8863 40 32.5766 38.676 25.957 36.0284L16.5954 32.2836Z" stroke="white" stroke-width="2"/>
<path d="M73.3327 40C73.3327 40 70.023 42.969 63.4033 45.617L54.0417 49.3617C47.422 52.0093 44.1123 53.3333 39.9993 53.3333C35.8863 53.3333 32.5766 52.0093 25.957 49.3617L16.5954 45.617C9.97581 42.969 6.66602 40 6.66602 40" stroke="#333333" stroke-width="2" stroke-linecap="round"/>
<path d="M73.3327 53.3334C73.3327 53.3334 70.023 56.3024 63.4033 58.9504L54.0417 62.695C47.422 65.3427 44.1123 66.6667 39.9993 66.6667C35.8863 66.6667 32.5766 65.3427 25.957 62.695L16.5954 58.9504C9.97581 56.3024 6.66602 53.3334 6.66602 53.3334" stroke="#333333" stroke-width="2" stroke-linecap="round"/>
</svg>
