<svg width="48" height="37" viewBox="0 0 48 37" fill="none" xmlns="http://www.w3.org/2000/svg">
<path d="M35.5026 19.6592C36.7677 19.6875 38.04 19.6017 39.3 19.7038C40.5761 19.9489 40.8836 21.9375 39.7499 22.5888C38.9764 23.0178 38.0575 22.7486 37.219 22.8242H35.5026V19.6592ZM40.0315 16.0769C40.3126 17.0982 39.3562 18.0151 38.4007 17.8745H35.5026C35.523 16.9114 35.4629 15.866 35.5321 14.9536C36.693 14.9873 37.8647 14.885 39.019 15.0071C39.5149 15.1354 39.93 15.5551 40.0315 16.0769ZM47.0061 0.931712C47.06 2.88209 47.0139 4.93554 47.0294 6.92548C47.0258 15.0158 47.037 23.106 47.0232 31.1968C46.9723 34.2288 44.362 36.8635 41.4369 36.924C38.5091 36.9362 35.5808 36.9259 32.6525 36.9292V24.6983C35.843 24.6813 39.0351 24.7327 42.2243 24.6726C43.7038 24.577 45.3243 23.5721 45.3932 21.8961C45.5673 20.2129 44.0257 19.0486 42.5621 18.8648C41.9994 18.8497 42.0159 18.6959 42.5621 18.6288C43.9581 18.3182 45.0543 16.8309 44.6436 15.3414C44.2936 13.7747 42.6114 13.1683 41.2123 13.1713C38.3595 13.1514 35.5061 13.1685 32.6531 13.1628C32.6715 10.8794 32.6147 8.59357 32.6838 6.31187C32.9098 3.33455 35.5859 0.879221 38.4698 0.932491C41.3156 0.932046 44.161 0.932046 47.0061 0.931934V0.931712Z" fill="url(#paint0_linear_677_16357)"/>
<path d="M0.411821 6.61981C0.48468 3.59256 3.10618 0.979545 6.02745 0.935302C8.9445 0.926052 11.862 0.933965 14.779 0.93129C14.771 11.0598 14.7948 21.1895 14.767 31.3175C14.6546 34.308 12.0617 36.8712 9.17228 36.9241C6.24971 36.935 3.32681 36.9257 0.404135 36.9287V24.2854C3.24302 24.9758 6.22005 25.2697 9.11621 24.8118C10.8474 24.525 12.7415 23.6498 13.3276 21.801C13.7589 20.2195 13.5161 18.5551 13.5803 16.9319V13.1623H8.56819C8.54568 15.6554 8.61431 18.1529 8.53193 20.643C8.39682 22.1735 6.92438 23.146 5.5221 23.0941C3.78302 23.113 0.336796 21.7966 0.336796 21.7966C0.328136 17.1256 0.387246 11.2758 0.411821 6.62026V6.61981Z" fill="url(#paint1_linear_677_16357)"/>
<path d="M16.6488 14.6824C16.3849 14.74 16.5957 13.7573 16.5283 13.3845C16.5463 11.0275 16.4907 8.66789 16.5589 6.31253C16.7843 3.32261 19.4809 0.861157 22.3765 0.931144H30.9038C30.8958 11.0597 30.9195 21.1894 30.8918 31.3173C30.7793 34.3078 28.1862 36.8709 25.2967 36.924C22.374 36.9353 19.451 36.9257 16.5282 36.9286V23.0762C18.5244 24.7622 21.2374 25.0247 23.7243 25.0293C25.5992 25.0286 27.4631 24.731 29.2838 24.2859V21.7481C27.2319 22.8008 24.8199 23.4695 22.5454 22.8647C20.9588 22.4581 19.807 20.8797 19.8327 19.1941C19.6488 17.4412 20.647 15.5905 22.3203 15.0694C24.3979 14.3999 26.6623 14.912 28.6097 15.7824C29.027 16.0073 29.4505 16.2863 29.2836 15.5684V13.5736C26.0266 12.7759 22.5603 12.4824 19.2881 13.3502C18.341 13.6252 17.4182 14.0424 16.6488 14.6826V14.6824Z" fill="url(#paint2_linear_677_16357)"/>
<defs>
<linearGradient id="paint0_linear_677_16357" x1="32.5543" y1="18.1608" x2="46.9387" y2="18.1608" gradientUnits="userSpaceOnUse">
<stop stop-color="#007B40"/>
<stop offset="1" stop-color="#55B330"/>
</linearGradient>
<linearGradient id="paint1_linear_677_16357" x1="0.0982901" y1="19.2747" x2="14.5433" y2="19.2747" gradientUnits="userSpaceOnUse">
<stop stop-color="#1D2970"/>
<stop offset="1" stop-color="#006DBA"/>
</linearGradient>
<linearGradient id="paint2_linear_677_16357" x1="16.5071" y1="18.5089" x2="30.9012" y2="18.5089" gradientUnits="userSpaceOnUse">
<stop stop-color="#6E2B2F"/>
<stop offset="1" stop-color="#E30138"/>
</linearGradient>
</defs>
</svg>
