<svg width="30" height="40" viewBox="0 0 30 40" fill="none" xmlns="http://www.w3.org/2000/svg">
<path d="M13.0684 12.3822C13.0684 13.7723 13.3307 14.6591 13.7839 15.7615C13.9509 16.169 14.2133 16.6483 14.4756 16.9599C15.0004 17.631 15.5013 17.5591 15.5013 17.1276C15.5013 16.4566 15.3105 16.0012 15.4059 15.3062C15.5967 13.94 17.7434 13.1731 17.7434 11.5434C17.7434 10.3929 17.3856 10.4169 17.3856 9.14666C17.3856 8.81112 17.4811 8.59542 17.6242 8.37972C17.7196 8.23591 17.982 7.92434 18.1012 7.82848C18.2682 7.68468 18.4351 7.49294 18.6021 7.34914C19.27 6.82187 19.0792 6.48633 18.6975 6.48633C18.0058 6.48633 16.2646 7.13344 15.5729 7.63674C15.4297 7.75658 15.3105 7.82848 15.1674 7.94831C14.5472 8.42765 13.9509 9.31443 13.6408 10.0574C13.4261 10.5847 13.0684 11.6632 13.0684 12.3822Z" stroke="white" stroke-width="0.548482" stroke-miterlimit="10"/>
<path d="M9.94278 23.6946C8.65475 23.6946 7.65295 23.3351 6.60345 23.9582C5.6255 24.5574 5.36313 26.1872 3.88428 26.1872C3.00174 26.1872 2.02379 25.9475 1.90452 26.2591C1.85682 26.3549 1.90453 26.4508 1.95223 26.5227C2.02379 26.5946 2.1192 26.6905 2.23846 26.7863C2.38158 26.9062 2.64395 27.1219 3.14485 27.4335C3.40723 27.5773 3.66961 27.7211 4.1228 27.9368C5.84017 28.7756 7.77222 28.3682 9.39418 27.5293C9.94278 27.2417 10.229 27.0021 10.6584 26.5467C10.9207 26.307 11.1354 26.0194 11.3501 25.7318C11.5647 25.4442 11.7556 25.1566 11.9464 24.8211C12.2326 24.3657 12.7335 23.3111 12.7335 22.6161C12.7335 22.3525 12.6143 22.0409 12.3757 22.0409C12.1134 22.0409 11.517 22.8797 11.04 23.2392C10.7538 23.5268 10.3483 23.6946 9.94278 23.6946Z" stroke="white" stroke-width="0.548482" stroke-miterlimit="10"/>
<path d="M1.23633 15.9528C1.23633 17.0313 1.64182 17.8702 1.64182 17.8702C2.21428 19.5958 3.28763 20.7222 5.02886 21.4412C6.48385 22.0404 7.41409 22.0644 8.94065 21.7528C9.65622 21.609 11.946 20.914 11.946 20.0991C11.946 19.6197 11.1828 19.8115 10.8727 19.8115C9.77548 19.8355 9.32229 19.7636 8.53516 18.9007C7.86729 18.1817 7.29483 17.1512 5.9591 17.1512C5.62516 17.1512 5.38664 17.2231 5.07656 17.271C4.52796 17.3908 4.5041 17.3908 3.9555 17.3908C3.09681 17.3908 1.9519 15.5693 1.49871 15.5693C1.37944 15.5693 1.30788 15.6173 1.30788 15.6173C1.30788 15.6652 1.23633 15.7371 1.23633 15.9528Z" stroke="white" stroke-width="0.548482" stroke-miterlimit="10"/>
<path d="M17.6953 20.5789C17.6953 20.9144 18.077 20.8665 18.4109 20.8665C18.6256 20.8665 18.6733 20.8425 18.8641 20.8186C20.0567 20.7946 20.2714 20.9384 21.0346 21.6814C21.3209 21.969 21.631 22.4004 21.8218 22.5682C22.2511 22.9996 22.8474 23.4549 23.4914 23.4549C24.5648 23.4549 24.5171 23.3111 25.2088 23.2392C26.3776 23.1434 26.7354 23.5748 27.4748 24.5095C27.6418 24.7252 27.8564 25.0607 28.1427 25.0607C28.7628 25.0607 28.0711 22.9996 27.9757 22.688C27.8564 22.3045 27.6895 21.921 27.4986 21.6095C27.4032 21.4417 27.3078 21.2979 27.1886 21.1301C26.8785 20.6987 26.4491 20.2673 26.0198 19.9558C25.7336 19.764 25.3519 19.5004 25.018 19.3806C24.6364 19.2367 24.3024 19.069 23.8969 18.9491C22.3942 18.4938 21.0585 18.7334 19.5796 19.2128C19.031 19.4045 17.6953 19.9558 17.6953 20.5789Z" stroke="white" stroke-width="0.548482" stroke-miterlimit="10"/>
<path d="M16.9082 17.8709C16.9082 18.5419 17.1944 18.9014 17.7192 18.2783C17.7907 18.2064 17.8384 18.1105 17.91 18.0386C17.9816 17.9428 18.0293 17.8709 18.1008 17.775C18.2439 17.5833 18.5779 17.2477 18.7687 17.1279C18.8641 17.056 18.9595 17.032 19.0788 16.9601C19.3173 16.8403 19.4843 16.8163 19.7943 16.7923C20.2952 16.7204 20.987 16.7923 21.5594 16.7684C22.6089 16.7204 23.1814 16.1932 23.6823 15.3543C24.4933 13.9882 24.7079 13.7725 26.2583 13.7965C26.473 13.7965 26.9501 13.8923 27.2124 13.7965C27.5225 13.7006 27.5941 13.413 27.1409 13.1254C25.0419 11.7593 23.2529 11.3039 20.8438 12.3824C20.4861 12.5502 19.6751 13.0295 19.3888 13.2692C18.5779 13.9403 17.91 15.0667 17.4568 16.0254C17.3614 16.2171 17.3137 16.3849 17.2421 16.5766C17.0513 16.9122 16.9082 17.4874 16.9082 17.8709Z" stroke="white" stroke-width="0.548482" stroke-miterlimit="10"/>
<path d="M6.41211 11.5913C6.41211 12.3103 6.41211 12.7177 6.65063 13.4367C6.72219 13.6524 6.76989 13.7962 6.84145 13.988C7.10383 14.659 7.50931 15.378 7.98636 15.9293C8.58267 16.6243 9.3698 17.1516 10.2046 17.559C10.7771 17.8466 11.7312 18.278 12.5422 18.278C12.9 18.278 13.4724 18.0144 12.8284 17.4871C12.0651 16.84 11.3257 16.4086 11.3257 15.1384C11.3257 14.1318 11.4688 13.5086 11.1349 12.6937C10.8725 12.0227 10.3716 11.7111 9.77529 11.3516C9.39365 11.1119 9.10742 10.9681 8.84505 10.6086C8.15333 9.74581 8.43956 8.35573 8.51112 8.02019C8.60653 7.49292 8.7735 7.15738 8.67809 7.10945C8.55882 7.03755 8.12948 7.54085 7.8194 7.97226L7.27079 8.85903C6.84145 9.50614 6.41211 10.6805 6.41211 11.5913Z" stroke="white" stroke-width="0.548482" stroke-miterlimit="10"/>
<path d="M16.5254 22.6884C16.5254 23.2876 17.5033 23.4314 18.0758 24.462C18.6244 25.4686 17.8134 27.4818 18.8152 28.5843C19.7693 29.6149 21.1289 29.6388 21.1289 31.2446C21.1289 31.6281 21.0573 32.6347 21.0812 32.7785C21.1766 33.1859 21.5105 33.138 21.7729 32.7545C21.8683 32.6107 21.9637 32.4669 22.0591 32.3231C22.25 32.0116 22.4408 31.7 22.5839 31.3884C23.4664 29.4231 23.3949 27.9372 22.4408 26.0198C22.25 25.6603 22.0591 25.3248 21.8206 24.9892C21.105 24.0306 19.5069 23.024 18.4097 22.6644C18.0996 22.5686 17.4079 22.3529 17.074 22.3768C16.8593 22.4008 16.5254 22.4967 16.5254 22.6884Z" stroke="white" stroke-width="0.548482" stroke-miterlimit="10"/>
<path d="M14.284 24.8452C14.284 25.756 13.7592 26.2353 13.1867 26.7386C11.9226 27.865 11.3978 28.2485 11.7795 30.1419C11.9703 31.0766 12.018 31.6518 11.3263 32.3708C11.0162 32.6824 10.5868 32.97 10.3245 33.2336C10.2529 33.3055 10.0859 33.4254 10.0859 33.6171C10.0859 33.689 10.1098 33.7369 10.1336 33.7609C10.5153 33.8088 11.0639 33.8088 11.684 33.689C12.9005 33.4733 13.7354 32.8741 14.117 32.5865C14.8087 32.0353 15.3812 31.2923 15.7867 30.4055C16.0729 29.7824 16.4068 28.7758 16.4068 28.0568C16.4068 26.7865 16.2876 26.1394 15.9059 24.989C15.7151 24.4378 15.1665 23.1436 14.5702 23.1436C14.117 23.1436 14.3078 23.9824 14.3317 24.3179C14.284 24.5097 14.284 24.6774 14.284 24.8452Z" stroke="white" stroke-width="0.548482" stroke-miterlimit="10"/>
<path d="M29.0005 6.55785C29.0005 7.44463 28.3088 8.1157 27.4262 8.1157C26.5437 8.1157 25.8281 7.42066 25.8281 6.55785C25.8281 5.69504 26.5437 5 27.4262 5C28.3326 5 29.0005 5.69504 29.0005 6.55785ZM26.2336 6.55785C26.2336 7.25289 26.7345 7.80413 27.4262 7.80413C28.0941 7.80413 28.595 7.25289 28.595 6.58182C28.595 5.88678 28.0941 5.33554 27.4024 5.33554C26.7584 5.31157 26.2336 5.86281 26.2336 6.55785ZM27.1877 7.34876H26.8299V5.81488C26.973 5.79091 27.1639 5.76694 27.4262 5.76694C27.7125 5.76694 27.8556 5.81488 27.951 5.88678C28.0464 5.95868 28.0941 6.07851 28.0941 6.22231C28.0941 6.39008 27.951 6.53388 27.784 6.58182V6.60578C27.9271 6.65372 28.0225 6.77355 28.0702 6.98926C28.118 7.22893 28.1418 7.32479 28.1895 7.37273H27.8079C27.7602 7.32479 27.7363 7.18099 27.6886 6.98926C27.6648 6.82149 27.5693 6.74959 27.3785 6.74959H27.2116V7.34876H27.1877ZM27.1877 6.48595H27.3547C27.5455 6.48595 27.7125 6.41405 27.7125 6.27025C27.7125 6.12645 27.6171 6.03058 27.3785 6.03058C27.2831 6.03058 27.2116 6.03058 27.1877 6.05455V6.48595Z" fill="white"/>
</svg>
