<svg width="106" height="41" viewBox="0 0 106 41" fill="none" xmlns="http://www.w3.org/2000/svg">
<g clip-path="url(#clip0_4001_890)">
<path d="M90.0684 7.38219C90.0684 8.77228 90.3307 9.65905 90.7839 10.7615C90.9509 11.169 91.2133 11.6483 91.4756 11.9599C92.0004 12.631 92.5013 12.5591 92.5013 12.1276C92.5013 11.4566 92.3105 11.0012 92.4059 10.3062C92.5967 8.94005 94.7434 8.1731 94.7434 6.54335C94.7434 5.39294 94.3856 5.41691 94.3856 4.14666C94.3856 3.81112 94.4811 3.59542 94.6242 3.37972C94.7196 3.23591 94.982 2.92434 95.1012 2.82848C95.2682 2.68468 95.4351 2.49294 95.6021 2.34914C96.27 1.82187 96.0792 1.48633 95.6975 1.48633C95.0058 1.48633 93.2646 2.13344 92.5729 2.63674C92.4297 2.75658 92.3105 2.82848 92.1674 2.94831C91.5472 3.42765 90.9509 4.31443 90.6408 5.0574C90.4261 5.58467 90.0684 6.66319 90.0684 7.38219Z" stroke="white" stroke-width="0.548482" stroke-miterlimit="10"/>
<path d="M86.9428 18.6946C85.6548 18.6946 84.653 18.3351 83.6034 18.9582C82.6255 19.5574 82.3631 21.1872 80.8843 21.1872C80.0017 21.1872 79.0238 20.9475 78.9045 21.2591C78.8568 21.3549 78.9045 21.4508 78.9522 21.5227C79.0238 21.5946 79.1192 21.6905 79.2385 21.7863C79.3816 21.9062 79.644 22.1219 80.1449 22.4335C80.4072 22.5773 80.6696 22.7211 81.1228 22.9368C82.8402 23.7756 84.7722 23.3682 86.3942 22.5293C86.9428 22.2417 87.229 22.0021 87.6584 21.5467C87.9207 21.307 88.1354 21.0194 88.3501 20.7318C88.5647 20.4442 88.7556 20.1566 88.9464 19.8211C89.2326 19.3657 89.7335 18.3111 89.7335 17.6161C89.7335 17.3525 89.6143 17.0409 89.3757 17.0409C89.1134 17.0409 88.517 17.8797 88.04 18.2392C87.7538 18.5268 87.3483 18.6946 86.9428 18.6946Z" stroke="white" stroke-width="0.548482" stroke-miterlimit="10"/>
<path d="M78.2363 10.9528C78.2363 12.0313 78.6418 12.8702 78.6418 12.8702C79.2143 14.5958 80.2876 15.7222 82.0289 16.4412C83.4839 17.0404 84.4141 17.0644 85.9406 16.7528C86.6562 16.609 88.946 15.914 88.946 15.0991C88.946 14.6197 88.1828 14.8115 87.8727 14.8115C86.7755 14.8355 86.3223 14.7636 85.5352 13.9007C84.8673 13.1817 84.2948 12.1512 82.9591 12.1512C82.6252 12.1512 82.3866 12.2231 82.0766 12.271C81.528 12.3908 81.5041 12.3908 80.9555 12.3908C80.0968 12.3908 78.9519 10.5693 78.4987 10.5693C78.3794 10.5693 78.3079 10.6173 78.3079 10.6173C78.3079 10.6652 78.2363 10.7371 78.2363 10.9528Z" stroke="white" stroke-width="0.548482" stroke-miterlimit="10"/>
<path d="M94.6953 15.5789C94.6953 15.9144 95.077 15.8665 95.4109 15.8665C95.6256 15.8665 95.6733 15.8425 95.8641 15.8186C97.0567 15.7946 97.2714 15.9384 98.0346 16.6814C98.3209 16.969 98.631 17.4004 98.8218 17.5682C99.2511 17.9996 99.8474 18.4549 100.491 18.4549C101.565 18.4549 101.517 18.3111 102.209 18.2392C103.378 18.1434 103.735 18.5748 104.475 19.5095C104.642 19.7252 104.856 20.0607 105.143 20.0607C105.763 20.0607 105.071 17.9996 104.976 17.688C104.856 17.3045 104.689 16.921 104.499 16.6095C104.403 16.4417 104.308 16.2979 104.189 16.1301C103.878 15.6987 103.449 15.2673 103.02 14.9558C102.734 14.764 102.352 14.5004 102.018 14.3806C101.636 14.2367 101.302 14.069 100.897 13.9491C99.3942 13.4938 98.0585 13.7334 96.5796 14.2128C96.031 14.4045 94.6953 14.9558 94.6953 15.5789Z" stroke="white" stroke-width="0.548482" stroke-miterlimit="10"/>
<path d="M93.9082 12.8709C93.9082 13.5419 94.1944 13.9014 94.7192 13.2783C94.7907 13.2064 94.8384 13.1105 94.91 13.0386C94.9816 12.9428 95.0293 12.8709 95.1008 12.775C95.2439 12.5833 95.5779 12.2477 95.7687 12.1279C95.8641 12.056 95.9595 12.032 96.0788 11.9601C96.3173 11.8403 96.4843 11.8163 96.7943 11.7923C97.2952 11.7204 97.987 11.7923 98.5594 11.7684C99.6089 11.7204 100.181 11.1932 100.682 10.3543C101.493 8.98821 101.708 8.77251 103.258 8.79648C103.473 8.79648 103.95 8.89234 104.212 8.79648C104.523 8.70061 104.594 8.413 104.141 8.1254C102.042 6.75929 100.253 6.30391 97.8438 7.38243C97.4861 7.55019 96.6751 8.02953 96.3888 8.2692C95.5779 8.94028 94.91 10.0667 94.4568 11.0254C94.3614 11.2171 94.3137 11.3849 94.2421 11.5766C94.0513 11.9122 93.9082 12.4874 93.9082 12.8709Z" stroke="white" stroke-width="0.548482" stroke-miterlimit="10"/>
<path d="M83.4121 6.59126C83.4121 7.31027 83.4121 7.71771 83.6506 8.43672C83.7222 8.65242 83.7699 8.79622 83.8414 8.98796C84.1038 9.65903 84.5093 10.378 84.9864 10.9293C85.5827 11.6243 86.3698 12.1516 87.2046 12.559C87.7771 12.8466 88.7312 13.278 89.5422 13.278C89.9 13.278 90.4724 13.0144 89.8284 12.4871C89.0651 11.84 88.3257 11.4086 88.3257 10.1384C88.3257 9.13176 88.4688 8.50862 88.1349 7.69374C87.8725 7.02267 87.3716 6.7111 86.7753 6.3516C86.3937 6.11193 86.1074 5.96812 85.845 5.60862C85.1533 4.74581 85.4396 3.35573 85.5111 3.02019C85.6065 2.49292 85.7735 2.15738 85.6781 2.10945C85.5588 2.03755 85.1295 2.54085 84.8194 2.97226L84.2708 3.85903C83.8414 4.50614 83.4121 5.68052 83.4121 6.59126Z" stroke="white" stroke-width="0.548482" stroke-miterlimit="10"/>
<path d="M93.5254 17.6884C93.5254 18.2876 94.5033 18.4314 95.0758 19.462C95.6244 20.4686 94.8134 22.4818 95.8152 23.5843C96.7693 24.6149 98.1289 24.6388 98.1289 26.2446C98.1289 26.6281 98.0573 27.6347 98.0812 27.7785C98.1766 28.1859 98.5105 28.138 98.7729 27.7545C98.8683 27.6107 98.9637 27.4669 99.0591 27.3231C99.25 27.0116 99.4408 26.7 99.5839 26.3884C100.466 24.4231 100.395 22.9372 99.4408 21.0198C99.25 20.6603 99.0591 20.3248 98.8206 19.9892C98.105 19.0306 96.5069 18.024 95.4097 17.6644C95.0996 17.5686 94.4079 17.3529 94.074 17.3768C93.8593 17.4008 93.5254 17.4967 93.5254 17.6884Z" stroke="white" stroke-width="0.548482" stroke-miterlimit="10"/>
<path d="M91.284 19.8452C91.284 20.756 90.7592 21.2353 90.1867 21.7386C88.9226 22.865 88.3978 23.2485 88.7795 25.1419C88.9703 26.0766 89.018 26.6518 88.3263 27.3708C88.0162 27.6824 87.5868 27.97 87.3245 28.2336C87.2529 28.3055 87.0859 28.4254 87.0859 28.6171C87.0859 28.689 87.1098 28.7369 87.1336 28.7609C87.5153 28.8088 88.0639 28.8088 88.684 28.689C89.9005 28.4733 90.7354 27.8741 91.117 27.5865C91.8087 27.0353 92.3812 26.2923 92.7867 25.4055C93.0729 24.7824 93.4068 23.7758 93.4068 23.0568C93.4068 21.7865 93.2876 21.1394 92.9059 19.989C92.7151 19.4378 92.1665 18.1436 91.5702 18.1436C91.117 18.1436 91.3078 18.9824 91.3317 19.3179C91.284 19.5097 91.284 19.6774 91.284 19.8452Z" stroke="white" stroke-width="0.548482" stroke-miterlimit="10"/>
<path d="M15.9102 16.3935C15.9102 15.6984 16.0056 15.0513 16.2202 14.5001C16.4349 13.9489 16.6973 13.4695 17.0551 13.086C17.4129 12.7026 17.8422 12.391 18.367 12.1993C18.8679 11.9836 19.4403 11.8877 20.0605 11.8877C20.7045 11.8877 21.2531 11.9836 21.754 12.1513C22.2549 12.3431 22.6842 12.5827 23.0182 12.8703C23.376 13.1819 23.6383 13.5414 23.8291 13.9489C24.02 14.3563 24.1154 14.8117 24.1154 15.267C24.1154 15.4348 24.1154 15.5786 24.0915 15.6745C24.0677 15.7943 24.0438 15.8902 24.0438 15.986C24.02 16.1059 23.9723 16.2017 23.9723 16.2736C23.4714 16.3695 22.9466 16.4654 22.398 16.5133C21.921 16.5852 21.3724 16.6332 20.7522 16.6811C20.132 16.729 19.488 16.753 18.8201 16.753C18.8201 17.448 18.8679 18.0472 18.9633 18.5026C19.0587 18.9819 19.2018 19.3414 19.3926 19.629C19.5596 19.9166 19.7742 20.1084 20.0366 20.2282C20.2751 20.348 20.5614 20.396 20.8476 20.396C21.1815 20.396 21.4916 20.3241 21.8017 20.2042C22.1118 20.0844 22.3503 19.9166 22.5888 19.7009C22.8035 19.4852 22.9943 19.2455 23.1136 18.9819C23.2328 18.7183 23.3044 18.4546 23.3044 18.167H23.7337C23.7337 18.5026 23.6622 18.8381 23.4952 19.1497C23.3521 19.4612 23.1374 19.7489 22.8512 19.9885C22.565 20.2282 22.231 20.4199 21.8255 20.5877C21.4439 20.7315 20.9907 20.8034 20.5137 20.8034C19.0825 20.8034 17.9615 20.396 17.1505 19.6051C16.3156 18.91 15.9102 17.8075 15.9102 16.3935ZM18.7724 16.3935C19.1541 16.3935 19.488 16.3935 19.7981 16.3695C20.0843 16.3455 20.3467 16.3455 20.5375 16.3216C20.776 16.2976 20.9669 16.2736 21.1577 16.2497C21.1815 16.1298 21.2054 16.01 21.2292 15.8662C21.2531 15.7464 21.2769 15.6026 21.2769 15.4588C21.3008 15.315 21.3008 15.1472 21.3008 14.9794C21.3008 14.4761 21.2531 14.0447 21.1815 13.7092C21.11 13.3736 21.0146 13.086 20.8953 12.8703C20.776 12.6546 20.6329 12.5108 20.4898 12.415C20.3467 12.3191 20.1797 12.2712 20.0366 12.2712C19.8935 12.2712 19.7265 12.3191 19.5834 12.4389C19.4403 12.5348 19.2972 12.7505 19.1779 13.0621C19.0587 13.3736 18.9633 13.7811 18.8917 14.3323C18.8201 14.8117 18.7724 15.5307 18.7724 16.3935Z" fill="white"/>
<path d="M25.3789 20.6598V20.3962L26.4046 20.1565V12.6548L25.3789 12.4152V12.1515H26.9055C27.3109 12.1515 27.621 12.2234 27.8834 12.3433C28.1458 12.4871 28.3366 12.6309 28.4797 12.7986C28.6467 12.9904 28.7659 13.2061 28.8614 13.4218C29.0283 13.1821 29.243 12.9424 29.4815 12.7507C29.6962 12.5829 29.9586 12.4152 30.2686 12.2714C30.5787 12.1276 30.9365 12.0557 31.3659 12.0557C31.986 12.0557 32.4392 12.1995 32.7254 12.4871C33.0117 12.7747 33.1548 13.1581 33.1548 13.6614C33.1548 14.0449 33.0355 14.3565 32.797 14.5962C32.5585 14.8358 32.2484 14.9557 31.8668 14.9557C31.7713 14.9557 31.6998 14.9557 31.6044 14.9557C31.509 14.9557 31.4374 14.9317 31.3897 14.9317C31.3182 14.9317 31.2466 14.9077 31.175 14.8838V12.511C30.8411 12.511 30.531 12.5829 30.2686 12.7267C30.0063 12.8705 29.7916 13.0143 29.6008 13.2061C29.3861 13.4218 29.2191 13.6375 29.0522 13.8772V20.1325L30.0778 20.3722V20.6358H25.3789V20.6598Z" fill="white"/>
<path d="M33.8945 16.3935C33.8945 14.9794 34.3 13.877 35.0872 13.086C35.8981 12.2951 37.0192 11.8877 38.4503 11.8877C38.9989 11.8877 39.476 11.9356 39.8815 12.0555C40.287 12.1513 40.5971 12.2951 40.8594 12.4869C41.1218 12.6546 41.2888 12.8703 41.408 13.086C41.5273 13.3017 41.575 13.5414 41.575 13.7811C41.575 14.1646 41.4557 14.4761 41.2172 14.7158C40.9787 14.9555 40.6686 15.0513 40.287 15.0513C40.1916 15.0513 40.12 15.0513 40.0246 15.0513C39.9292 15.0513 39.8576 15.0274 39.8099 15.0274C39.7384 15.0274 39.6668 15.0034 39.5953 14.9794V12.415C39.5237 12.391 39.4521 12.367 39.3567 12.3191C39.2852 12.2951 39.1898 12.2712 39.0943 12.2712C38.9989 12.2472 38.8797 12.2472 38.7604 12.2472C38.4742 12.2472 38.188 12.3191 37.9494 12.4389C37.6871 12.5588 37.4962 12.7745 37.3054 13.086C37.1385 13.3976 36.9953 13.829 36.8761 14.3563C36.7807 14.8836 36.733 15.5786 36.733 16.3935C36.733 17.1844 36.7807 17.8555 36.8761 18.3827C36.9715 18.91 37.1146 19.3174 37.3054 19.629C37.4724 19.9406 37.6871 20.1563 37.9494 20.2761C38.188 20.396 38.4742 20.4679 38.7604 20.4679C39.0944 20.4679 39.4044 20.396 39.7145 20.2761C40.0246 20.1563 40.2631 19.9885 40.5016 19.7728C40.7163 19.5571 40.9071 19.3174 41.0264 19.0538C41.1457 18.7902 41.2172 18.5265 41.2172 18.2389H41.6466C41.6466 18.5745 41.575 18.91 41.408 19.2216C41.2649 19.5331 41.0502 19.8208 40.764 20.0604C40.4778 20.3001 40.1439 20.4918 39.7384 20.6596C39.3567 20.8034 38.9035 20.8753 38.4265 20.8753C36.9953 20.8753 35.8743 20.4679 35.0633 19.677C34.3 18.91 33.8945 17.8075 33.8945 16.3935Z" fill="white"/>
<path d="M42.6016 12.415V12.1514H44.796C45.7978 12.1514 46.3225 12.6547 46.3225 13.6853V18.0952C46.3225 18.4786 46.3702 18.8142 46.4418 19.1018C46.5134 19.3894 46.6088 19.6051 46.728 19.7968C46.8473 19.9646 46.9904 20.1084 47.1335 20.2043C47.2766 20.3001 47.4436 20.3241 47.5867 20.3241C47.8491 20.3241 48.0638 20.2522 48.2546 20.1084C48.4454 19.9646 48.5885 19.8208 48.7316 19.6291C48.8747 19.4134 49.0179 19.1976 49.1133 18.958V12.6547L48.0876 12.415V12.1514H52.8104V12.415L51.7847 12.6547V20.7315H51.6178C51.1169 20.7315 50.7352 20.6596 50.4251 20.5158C50.1151 20.372 49.9004 20.2282 49.7334 20.0365C49.5426 19.8208 49.3995 19.6051 49.3279 19.3654C49.1848 19.653 48.994 19.9167 48.7793 20.1324C48.5885 20.3241 48.3261 20.4919 48.0161 20.6596C47.706 20.8274 47.3243 20.8993 46.8711 20.8993C46.3941 20.8993 45.9409 20.8274 45.5354 20.6596C45.1299 20.4919 44.796 20.3001 44.4859 20.0365C44.1997 19.7729 43.9611 19.4853 43.818 19.1497C43.6511 18.8142 43.5795 18.4786 43.5795 18.1191V12.6547L42.6016 12.415Z" fill="white"/>
<path d="M53.8359 20.6598V20.3962L54.8616 20.1565V12.6548L53.8359 12.4152V12.1515H55.3625C55.768 12.1515 56.0781 12.2234 56.3404 12.3433C56.6028 12.4871 56.7936 12.6309 56.9367 12.7986C57.1037 12.9904 57.223 13.2061 57.3184 13.4218C57.4854 13.1821 57.7 12.9424 57.9385 12.7507C58.1532 12.5829 58.4156 12.4152 58.7257 12.2714C59.0358 12.1276 59.3935 12.0557 59.8229 12.0557C60.443 12.0557 60.8962 12.1995 61.1825 12.4871C61.4687 12.7747 61.6118 13.1581 61.6118 13.6614C61.6118 14.0449 61.4926 14.3565 61.254 14.5962C61.0155 14.8358 60.7054 14.9557 60.3238 14.9557C60.2284 14.9557 60.1568 14.9557 60.0614 14.9557C59.966 14.9557 59.8944 14.9317 59.8467 14.9317C59.7752 14.9317 59.7036 14.9077 59.6321 14.8838V12.511C59.2981 12.511 58.9881 12.5829 58.7257 12.7267C58.4633 12.8705 58.2486 13.0143 58.0578 13.2061C57.8431 13.4218 57.6762 13.6375 57.5092 13.8772V20.1325L58.5349 20.3722V20.6358H53.8359V20.6598Z" fill="white"/>
<path d="M61.3496 12.415V12.1514H63.4725C63.7826 12.1514 64.0688 12.1993 64.3073 12.2712C64.5458 12.3431 64.7605 12.439 64.9275 12.5588C65.0944 12.6786 65.2614 12.8224 65.4045 13.0142C65.5476 13.1819 65.6669 13.3737 65.7861 13.5894L67.909 17.52L69.6741 12.9183L68.4099 12.415V12.1514H71.5346V12.415L70.175 12.9183L66.788 21.6662C66.4302 22.601 66.0485 23.272 65.6192 23.6795C65.2137 24.0869 64.7605 24.2786 64.2357 24.2786C63.7348 24.2786 63.3294 24.1348 63.067 23.8712C62.7807 23.6076 62.6376 23.2241 62.6376 22.7448C62.6376 22.3134 62.7569 21.9778 62.9954 21.7381C63.2339 21.4985 63.5202 21.3786 63.9018 21.3786C63.9972 21.3786 64.0688 21.3786 64.1403 21.4026C64.2119 21.4026 64.2834 21.4266 64.355 21.4266C64.4266 21.4266 64.4981 21.4505 64.5697 21.4505V23.7514C64.7128 23.7274 64.8559 23.6795 64.999 23.6076C65.1421 23.5357 65.2853 23.4158 65.4045 23.2481C65.5476 23.0803 65.6669 22.8646 65.81 22.6249C65.9531 22.3613 66.0962 22.0497 66.2632 21.6662L66.5971 20.8034L62.2083 12.6547L61.3496 12.415Z" fill="white"/>
<path d="M75.3262 7.42969V23.0322" stroke="white" stroke-width="0.548482" stroke-miterlimit="10"/>
<path d="M10.9964 5.08105C11.2111 7.81329 10.9725 9.1794 10.9725 9.22734C10.9725 9.37114 10.9487 9.3951 10.9487 9.56287C10.9487 9.73064 10.9487 9.82651 10.9248 9.94634C10.901 10.186 10.901 10.4257 10.8771 10.6654C10.8533 11.1207 10.7817 11.624 10.734 12.1034C10.5671 13.6373 10.3047 16.01 9.9469 17.5199C9.51755 19.4612 9.42214 19.9885 8.80198 21.786C8.73043 21.9777 8.65887 22.1935 8.58731 22.3612C8.22952 23.1761 7.91944 23.9191 7.46625 24.71C7.27543 25.0695 7.08461 25.453 6.77453 25.9563C6.36904 26.6273 6.01125 27.2025 5.70117 27.61C6.10666 27.61 6.75068 27.562 7.4424 27.2505C8.77813 26.6513 9.39829 25.5009 9.56526 25.1414C10.4478 23.6315 10.8771 22.529 11.4019 20.6835C12.1652 18.0232 12.1413 17.5918 12.5945 14.6678C12.6899 14.0687 12.8569 12.8943 12.9046 12.2711C12.9284 11.9835 12.9523 11.7439 12.9762 11.4563C13.1908 9.80254 13.2862 8.38849 13.477 6.51907C13.5009 6.2794 13.5248 5.9918 13.5725 5.65626C13.644 5.03312 13.3578 4.40998 12.833 4.07444C12.2129 3.667 11.5927 3.2356 10.9487 2.82816C10.8294 2.75626 10.6625 2.85213 10.6863 2.99593C10.8771 3.81081 10.9487 4.52981 10.9964 5.08105Z" fill="white"/>
<path d="M5.22326 7.74135L5.1517 9.10747C5.104 9.51491 5.08014 10.0182 5.03244 10.4496C4.93703 11.2885 4.81777 12.2232 4.69851 13.062C4.45998 14.7157 4.1499 16.5133 3.52974 18.7901C3.1481 20.1323 2.86187 21.1628 2.26556 22.529C1.52614 24.2306 0.667452 25.5728 0.0234375 26.4595C1.35917 26.3397 2.1463 25.8604 2.57564 25.5488C3.67285 24.7099 4.1499 23.4637 4.98473 21.2108C5.24711 20.4918 5.50949 19.6769 5.50949 19.6769C5.6526 19.2215 5.77186 18.7422 5.91498 18.167C6.08194 17.5199 6.36817 16.2736 6.48743 15.6265C6.6544 14.7397 6.84522 13.8769 6.98833 12.9901C7.13145 12.0794 7.32227 11.1926 7.44153 10.2579C7.46538 9.99424 7.63235 9.2273 7.77546 8.22069C7.84702 7.62152 7.89473 7.30995 7.87087 7.16614C7.70391 6.1835 6.22506 5.46449 5.22326 5.17689C5.1517 5.15292 5.104 5.20086 5.104 5.27276C5.104 6.06367 5.17555 6.95044 5.22326 7.74135Z" fill="white"/>
<path d="M8.13367 20.8271C8.20523 20.8031 8.20523 20.7552 8.51531 19.9403C8.65842 19.5568 8.75383 19.2692 8.82539 19.1254C8.4676 18.9097 8.08596 18.5981 7.72818 18.1667C6.51171 16.6808 6.65482 14.8114 6.70253 14.332C6.60712 14.7395 6.48785 15.3147 6.4163 16.0097C6.36859 16.4411 6.32089 16.8486 6.32089 17.0163C6.22548 18.8138 7.68047 20.9709 8.13367 20.8271Z" fill="white"/>
<path d="M15.8855 27.6338C16.0047 27.5858 16.0286 27.49 16.6249 25.5247C16.8873 24.6379 17.1019 23.9668 17.2212 23.5834C16.5295 23.08 15.7424 22.361 15.0029 21.3305C12.5461 17.8073 12.8562 13.4693 12.9755 12.2949C12.7847 13.2296 12.57 14.5718 12.403 16.2255C12.3076 17.2561 12.2361 18.1908 12.2122 18.5982C12.0691 22.8643 14.9314 27.9693 15.8855 27.6338Z" fill="white"/>
<path d="M106 1.55785C106 2.44463 105.309 3.1157 104.426 3.1157C103.544 3.1157 102.828 2.42066 102.828 1.55785C102.828 0.695041 103.544 0 104.426 0C105.333 0 106 0.695041 106 1.55785ZM103.234 1.55785C103.234 2.25289 103.735 2.80413 104.426 2.80413C105.094 2.80413 105.595 2.25289 105.595 1.58182C105.595 0.886777 105.094 0.335537 104.402 0.335537C103.758 0.31157 103.234 0.86281 103.234 1.55785ZM104.188 2.34876H103.83V0.814876C103.973 0.790909 104.164 0.766942 104.426 0.766942C104.712 0.766942 104.856 0.814876 104.951 0.886777C105.046 0.958678 105.094 1.07851 105.094 1.22231C105.094 1.39008 104.951 1.53388 104.784 1.58182V1.60578C104.927 1.65372 105.023 1.77355 105.07 1.98926C105.118 2.22893 105.142 2.32479 105.19 2.37273H104.808C104.76 2.32479 104.736 2.18099 104.689 1.98926C104.665 1.82149 104.569 1.74959 104.379 1.74959H104.212V2.34876H104.188ZM104.188 1.48595H104.355C104.545 1.48595 104.712 1.41405 104.712 1.27025C104.712 1.12645 104.617 1.03058 104.379 1.03058C104.283 1.03058 104.212 1.03058 104.188 1.05455V1.48595Z" fill="white"/>
</g>
<path d="M0.728 33.288H3.144C3.76267 33.288 4.24 33.4373 4.576 33.736C4.912 34.0347 5.08 34.4533 5.08 34.992C5.08 35.536 4.912 35.96 4.576 36.264C4.24 36.5627 3.76267 36.712 3.144 36.712H1.448V39H0.728V33.288ZM1.448 36.072H3.024C3.90933 36.072 4.352 35.7147 4.352 35C4.352 34.2853 3.90933 33.928 3.024 33.928H1.448V36.072ZM6.186 35.464C6.54333 35.064 7.02867 34.864 7.642 34.864C8.25533 34.864 8.738 35.064 9.09 35.464C9.44733 35.864 9.626 36.3707 9.626 36.984C9.626 37.5973 9.44733 38.104 9.09 38.504C8.738 38.904 8.25533 39.104 7.642 39.104C7.02867 39.104 6.54333 38.904 6.186 38.504C5.834 38.104 5.658 37.5973 5.658 36.984C5.658 36.3707 5.834 35.864 6.186 35.464ZM6.674 38.072C6.898 38.3653 7.22067 38.512 7.642 38.512C8.06333 38.512 8.386 38.3653 8.61 38.072C8.834 37.7733 8.946 37.4107 8.946 36.984C8.946 36.5573 8.834 36.1973 8.61 35.904C8.386 35.6053 8.06333 35.456 7.642 35.456C7.22067 35.456 6.898 35.6053 6.674 35.904C6.45 36.1973 6.338 36.5573 6.338 36.984C6.338 37.4107 6.45 37.7733 6.674 38.072ZM13.4153 37.784H14.0953C14.0153 38.1893 13.8259 38.512 13.5273 38.752C13.2339 38.9867 12.8579 39.104 12.3993 39.104C11.7913 39.104 11.3113 38.9067 10.9593 38.512C10.6126 38.112 10.4393 37.6027 10.4393 36.984C10.4393 36.36 10.6126 35.8507 10.9593 35.456C11.3059 35.0613 11.7859 34.864 12.3993 34.864C12.8633 34.864 13.2393 34.9813 13.5273 35.216C13.8206 35.4453 14.0019 35.752 14.0712 36.136H13.3913C13.2473 35.6827 12.9166 35.456 12.3993 35.456C11.9673 35.456 11.6446 35.6 11.4313 35.888C11.2233 36.1707 11.1193 36.5307 11.1193 36.968C11.1193 37.4107 11.2259 37.7787 11.4393 38.072C11.6526 38.3653 11.9726 38.512 12.3993 38.512C12.9646 38.512 13.3033 38.2693 13.4153 37.784ZM17.8371 37.784H18.5171C18.4371 38.1893 18.2478 38.512 17.9491 38.752C17.6558 38.9867 17.2798 39.104 16.8211 39.104C16.2131 39.104 15.7331 38.9067 15.3811 38.512C15.0345 38.112 14.8611 37.6027 14.8611 36.984C14.8611 36.36 15.0345 35.8507 15.3811 35.456C15.7278 35.0613 16.2078 34.864 16.8211 34.864C17.2851 34.864 17.6611 34.9813 17.9491 35.216C18.2425 35.4453 18.4238 35.752 18.4931 36.136H17.8131C17.6691 35.6827 17.3385 35.456 16.8211 35.456C16.3891 35.456 16.0665 35.6 15.8531 35.888C15.6451 36.1707 15.5411 36.5307 15.5411 36.968C15.5411 37.4107 15.6478 37.7787 15.8611 38.072C16.0745 38.3653 16.3945 38.512 16.8211 38.512C17.3865 38.512 17.7251 38.2693 17.8371 37.784ZM20.491 39H19.531V34.968H20.195V38.088H20.371L22.139 34.968H23.131V39H22.467V35.88H22.291L20.491 39ZM25.4051 39H24.4451V34.968H25.1091V38.088H25.2851L27.0531 34.968H28.0451V39H27.3811V35.88H27.2051L25.4051 39ZM26.9251 33.208H27.4771C27.4664 33.5813 27.3517 33.8693 27.1331 34.072C26.9144 34.2747 26.6131 34.376 26.2291 34.376C25.8504 34.376 25.5517 34.2747 25.3331 34.072C25.1144 33.8693 24.9997 33.5813 24.9891 33.208H25.5411C25.5517 33.6613 25.7811 33.888 26.2291 33.888C26.6664 33.888 26.8984 33.6613 26.9251 33.208ZM32.0871 37.784H32.7671C32.6871 38.1893 32.4978 38.512 32.1991 38.752C31.9058 38.9867 31.5298 39.104 31.0711 39.104C30.4631 39.104 29.9831 38.9067 29.6311 38.512C29.2845 38.112 29.1111 37.6027 29.1111 36.984C29.1111 36.36 29.2845 35.8507 29.6311 35.456C29.9778 35.0613 30.4578 34.864 31.0711 34.864C31.5351 34.864 31.9111 34.9813 32.1991 35.216C32.4925 35.4453 32.6738 35.752 32.7431 36.136H32.0631C31.9191 35.6827 31.5885 35.456 31.0711 35.456C30.6391 35.456 30.3165 35.6 30.1031 35.888C29.8951 36.1707 29.7911 36.5307 29.7911 36.968C29.7911 37.4107 29.8978 37.7787 30.1111 38.072C30.3245 38.3653 30.6445 38.512 31.0711 38.512C31.6365 38.512 31.9751 38.2693 32.0871 37.784ZM36.565 39L35.669 37.224H34.461V39H33.781V34.968H34.461V36.632H35.685L36.525 34.968H37.237L36.253 36.912L37.293 39H36.565ZM38.4204 35.464C38.7777 35.064 39.263 34.864 39.8764 34.864C40.4897 34.864 40.9724 35.064 41.3244 35.464C41.6817 35.864 41.8604 36.3707 41.8604 36.984C41.8604 37.5973 41.6817 38.104 41.3244 38.504C40.9724 38.904 40.4897 39.104 39.8764 39.104C39.263 39.104 38.7777 38.904 38.4204 38.504C38.0684 38.104 37.8924 37.5973 37.8924 36.984C37.8924 36.3707 38.0684 35.864 38.4204 35.464ZM38.9084 38.072C39.1324 38.3653 39.455 38.512 39.8764 38.512C40.2977 38.512 40.6204 38.3653 40.8444 38.072C41.0684 37.7733 41.1804 37.4107 41.1804 36.984C41.1804 36.5573 41.0684 36.1973 40.8444 35.904C40.6204 35.6053 40.2977 35.456 39.8764 35.456C39.455 35.456 39.1324 35.6053 38.9084 35.904C38.6844 36.1973 38.5724 36.5573 38.5724 36.984C38.5724 37.4107 38.6844 37.7733 38.9084 38.072ZM46.4176 36.744V36.976H43.3456C43.3563 37.4613 43.471 37.84 43.6896 38.112C43.9083 38.3787 44.223 38.512 44.6336 38.512C45.1883 38.512 45.5296 38.304 45.6576 37.888H46.3456C46.2763 38.2507 46.0923 38.544 45.7936 38.768C45.5003 38.992 45.1136 39.104 44.6336 39.104C44.0203 39.104 43.5403 38.904 43.1936 38.504C42.847 38.104 42.6736 37.584 42.6736 36.944C42.6736 36.3147 42.847 35.8107 43.1936 35.432C43.5403 35.0533 44.015 34.864 44.6176 34.864C45.1883 34.864 45.6283 35.0453 45.9376 35.408C46.247 35.7653 46.407 36.2107 46.4176 36.744ZM44.6016 35.456C44.255 35.456 43.9776 35.5467 43.7696 35.728C43.5616 35.904 43.4336 36.1307 43.3856 36.408H45.7136C45.6923 36.136 45.583 35.9093 45.3856 35.728C45.1883 35.5467 44.927 35.456 44.6016 35.456ZM53.2629 39H52.5829V35.56H50.3829V39H49.7029V34.968H53.2629V39ZM56.5139 35.456C56.0925 35.456 55.7752 35.6027 55.5619 35.896C55.3539 36.1893 55.2499 36.552 55.2499 36.984C55.2499 37.416 55.3539 37.7787 55.5619 38.072C55.7752 38.3653 56.0925 38.512 56.5139 38.512C56.9085 38.512 57.2125 38.3733 57.4259 38.096C57.6445 37.8133 57.7539 37.4427 57.7539 36.984C57.7539 36.5253 57.6445 36.1573 57.4259 35.88C57.2125 35.5973 56.9085 35.456 56.5139 35.456ZM54.5779 34.968H55.2339V35.4H55.4099C55.6979 35.0427 56.1165 34.864 56.6659 34.864C57.2099 34.864 57.6392 35.064 57.9539 35.464C58.2739 35.864 58.4339 36.3707 58.4339 36.984C58.4339 37.608 58.2739 38.1173 57.9539 38.512C57.6392 38.9067 57.2099 39.104 56.6659 39.104C56.1112 39.104 55.7005 38.9253 55.4339 38.568H55.2579V40.6H54.5779V34.968ZM59.7798 35.464C60.1371 35.064 60.6224 34.864 61.2358 34.864C61.8491 34.864 62.3318 35.064 62.6838 35.464C63.0411 35.864 63.2198 36.3707 63.2198 36.984C63.2198 37.5973 63.0411 38.104 62.6838 38.504C62.3318 38.904 61.8491 39.104 61.2358 39.104C60.6224 39.104 60.1371 38.904 59.7798 38.504C59.4278 38.104 59.2518 37.5973 59.2518 36.984C59.2518 36.3707 59.4278 35.864 59.7798 35.464ZM60.2678 38.072C60.4918 38.3653 60.8144 38.512 61.2358 38.512C61.6571 38.512 61.9798 38.3653 62.2038 38.072C62.4278 37.7733 62.5398 37.4107 62.5398 36.984C62.5398 36.5573 62.4278 36.1973 62.2038 35.904C61.9798 35.6053 61.6571 35.456 61.2358 35.456C60.8144 35.456 60.4918 35.6053 60.2678 35.904C60.0438 36.1973 59.9318 36.5573 59.9318 36.984C59.9318 37.4107 60.0438 37.7733 60.2678 38.072ZM65.241 39H64.281V34.968H64.945V38.088H65.121L66.889 34.968H67.881V39H67.217V35.88H67.041L65.241 39ZM71.5071 36.072C71.5071 35.8747 71.4244 35.7227 71.2591 35.616C71.0991 35.5093 70.8857 35.456 70.6191 35.456C70.3311 35.456 70.1071 35.5067 69.9471 35.608C69.7924 35.704 69.6911 35.8613 69.6431 36.08H68.9951C69.0324 35.696 69.1977 35.3973 69.4911 35.184C69.7844 34.9707 70.1657 34.864 70.6351 34.864C71.1151 34.864 71.4911 34.9707 71.7631 35.184C72.0404 35.3973 72.1791 35.664 72.1791 35.984C72.1791 36.1973 72.1364 36.376 72.0511 36.52C71.9711 36.6587 71.8697 36.752 71.7471 36.8V36.976C71.9124 37.024 72.0484 37.1253 72.1551 37.28C72.2671 37.4293 72.3231 37.632 72.3231 37.888C72.3231 38.2347 72.1737 38.5253 71.8751 38.76C71.5817 38.9893 71.1737 39.104 70.6511 39.104C70.1124 39.104 69.6911 38.9947 69.3871 38.776C69.0831 38.5573 68.8991 38.2507 68.8351 37.856H69.4911C69.6244 38.2933 70.0111 38.512 70.6511 38.512C70.9497 38.512 71.1897 38.4587 71.3711 38.352C71.5524 38.24 71.6431 38.0773 71.6431 37.864C71.6431 37.656 71.5737 37.5013 71.4351 37.4C71.3017 37.2933 71.0751 37.24 70.7551 37.24H70.0431V36.648H70.7231C70.9951 36.648 71.1924 36.5947 71.3151 36.488C71.4431 36.3813 71.5071 36.2427 71.5071 36.072ZM76.2538 36.776V36.952C76.4511 37 76.6085 37.1067 76.7258 37.272C76.8485 37.4373 76.9098 37.6453 76.9098 37.896C76.9098 38.632 76.4351 39 75.4858 39H73.4138V34.968H75.4138C75.8191 34.968 76.1311 35.0587 76.3498 35.24C76.5738 35.416 76.6858 35.664 76.6858 35.984C76.6858 36.1707 76.6431 36.3333 76.5578 36.472C76.4778 36.6107 76.3765 36.712 76.2538 36.776ZM74.0858 38.424H75.4458C75.9685 38.424 76.2298 38.224 76.2298 37.824C76.2298 37.4187 75.9685 37.216 75.4458 37.216H74.0858V38.424ZM74.0858 35.544V36.64H75.3498C75.5791 36.64 75.7445 36.5893 75.8458 36.488C75.9525 36.3867 76.0058 36.256 76.0058 36.096C76.0058 35.728 75.7871 35.544 75.3498 35.544H74.0858ZM78.2485 35.464C78.6058 35.064 79.0912 34.864 79.7045 34.864C80.3178 34.864 80.8005 35.064 81.1525 35.464C81.5098 35.864 81.6885 36.3707 81.6885 36.984C81.6885 37.5973 81.5098 38.104 81.1525 38.504C80.8005 38.904 80.3178 39.104 79.7045 39.104C79.0912 39.104 78.6058 38.904 78.2485 38.504C77.8965 38.104 77.7205 37.5973 77.7205 36.984C77.7205 36.3707 77.8965 35.864 78.2485 35.464ZM78.7365 38.072C78.9605 38.3653 79.2832 38.512 79.7045 38.512C80.1258 38.512 80.4485 38.3653 80.6725 38.072C80.8965 37.7733 81.0085 37.4107 81.0085 36.984C81.0085 36.5573 80.8965 36.1973 80.6725 35.904C80.4485 35.6053 80.1258 35.456 79.7045 35.456C79.2832 35.456 78.9605 35.6053 78.7365 35.904C78.5125 36.1973 78.4005 36.5573 78.4005 36.984C78.4005 37.4107 78.5125 37.7733 78.7365 38.072ZM86.3418 38.408H87.0858V40.144H86.4218V39H82.9338V40.144H82.2698V38.408H82.8058C83.1364 37.704 83.3018 36.9253 83.3018 36.072V34.968H86.3418V38.408ZM85.6618 38.408V35.56H83.9338V36.072C83.9338 36.984 83.7871 37.7627 83.4938 38.408H85.6618ZM90.6965 37.784H91.3765C91.2965 38.1893 91.1072 38.512 90.8085 38.752C90.5152 38.9867 90.1392 39.104 89.6805 39.104C89.0725 39.104 88.5925 38.9067 88.2405 38.512C87.8938 38.112 87.7205 37.6027 87.7205 36.984C87.7205 36.36 87.8938 35.8507 88.2405 35.456C88.5872 35.0613 89.0672 34.864 89.6805 34.864C90.1445 34.864 90.5205 34.9813 90.8085 35.216C91.1018 35.4453 91.2832 35.752 91.3525 36.136H90.6725C90.5285 35.6827 90.1978 35.456 89.6805 35.456C89.2485 35.456 88.9258 35.6 88.7125 35.888C88.5045 36.1707 88.4005 36.5307 88.4005 36.968C88.4005 37.4107 88.5072 37.7787 88.7205 38.072C88.9338 38.3653 89.2538 38.512 89.6805 38.512C90.2458 38.512 90.5845 38.2693 90.6965 37.784ZM91.9744 35.56V34.968H95.4464V35.56H94.0544V39H93.3744V35.56H91.9744ZM99.1835 36.776V36.952C99.3808 37 99.5382 37.1067 99.6555 37.272C99.7782 37.4373 99.8395 37.6453 99.8395 37.896C99.8395 38.632 99.3648 39 98.4155 39H96.3435V34.968H98.3435C98.7488 34.968 99.0608 35.0587 99.2795 35.24C99.5035 35.416 99.6155 35.664 99.6155 35.984C99.6155 36.1707 99.5728 36.3333 99.4875 36.472C99.4075 36.6107 99.3062 36.712 99.1835 36.776ZM97.0155 38.424H98.3755C98.8982 38.424 99.1595 38.224 99.1595 37.824C99.1595 37.4187 98.8982 37.216 98.3755 37.216H97.0155V38.424ZM97.0155 35.544V36.64H98.2795C98.5088 36.64 98.6742 36.5893 98.7755 36.488C98.8822 36.3867 98.9355 36.256 98.9355 36.096C98.9355 35.728 98.7168 35.544 98.2795 35.544H97.0155ZM101.178 35.464C101.536 35.064 102.021 34.864 102.634 34.864C103.248 34.864 103.73 35.064 104.082 35.464C104.44 35.864 104.618 36.3707 104.618 36.984C104.618 37.5973 104.44 38.104 104.082 38.504C103.73 38.904 103.248 39.104 102.634 39.104C102.021 39.104 101.536 38.904 101.178 38.504C100.826 38.104 100.65 37.5973 100.65 36.984C100.65 36.3707 100.826 35.864 101.178 35.464ZM101.666 38.072C101.89 38.3653 102.213 38.512 102.634 38.512C103.056 38.512 103.378 38.3653 103.602 38.072C103.826 37.7733 103.938 37.4107 103.938 36.984C103.938 36.5573 103.826 36.1973 103.602 35.904C103.378 35.6053 103.056 35.456 102.634 35.456C102.213 35.456 101.89 35.6053 101.666 35.904C101.442 36.1973 101.33 36.5573 101.33 36.984C101.33 37.4107 101.442 37.7733 101.666 38.072Z" fill="#999999"/>
<defs>
<clipPath id="clip0_4001_890">
<rect width="106" height="30" fill="white"/>
</clipPath>
</defs>
</svg>
