<svg width="67" height="42" viewBox="0 0 67 42" fill="none" xmlns="http://www.w3.org/2000/svg">
<path fill-rule="evenodd" clip-rule="evenodd" d="M33.2577 36.2465C29.7848 39.2806 25.2799 41.1122 20.3573 41.1122C9.37316 41.1122 0.46875 31.9926 0.46875 20.7431C0.46875 9.49357 9.37316 0.374023 20.3573 0.374023C25.2799 0.374023 29.7848 2.20561 33.2577 5.23967C36.7306 2.20561 41.2355 0.374023 46.1581 0.374023C57.1422 0.374023 66.0466 9.49357 66.0466 20.7431C66.0466 31.9926 57.1422 41.1122 46.1581 41.1122C41.2355 41.1122 36.7306 39.2806 33.2577 36.2465Z" fill="#ED0006"/>
<path fill-rule="evenodd" clip-rule="evenodd" d="M33.2578 36.2464C37.5342 32.5104 40.2459 26.9511 40.2459 20.7431C40.2459 14.5351 37.5342 8.97581 33.2578 5.23974C36.7307 2.20564 41.2357 0.374023 46.1583 0.374023C57.1424 0.374023 66.0468 9.49357 66.0468 20.7431C66.0468 31.9926 57.1424 41.1122 46.1583 41.1122C41.2357 41.1122 36.7307 39.2806 33.2578 36.2464Z" fill="#F9A000"/>
<path fill-rule="evenodd" clip-rule="evenodd" d="M33.2577 36.2465C37.5342 32.5104 40.2459 26.9511 40.2459 20.7431C40.2459 14.535 37.5342 8.97569 33.2577 5.23962C28.9812 8.97569 26.2695 14.535 26.2695 20.7431C26.2695 26.9511 28.9812 32.5104 33.2577 36.2465Z" fill="#FF5E00"/>
</svg>
