<svg width="74" height="20" viewBox="0 0 74 20" fill="none" xmlns="http://www.w3.org/2000/svg">
<path fill-rule="evenodd" clip-rule="evenodd" d="M7.42196 0.00340463C8.07541 -0.000504551 10.0174 -0.175413 10.84 2.60086C11.3941 4.47099 12.2768 7.53435 13.488 11.7909H13.9813C15.2802 7.30335 16.1725 4.23999 16.6582 2.60086C17.4894 -0.204333 19.5673 0.0034596 20.3985 0.0034596L26.8111 0.0034676V19.9515H20.2752V8.19578H19.8369L16.1934 19.9515H11.2759L7.63245 8.18707H7.19417V19.9515H0.658203V0.0034676L7.42196 0.00340463ZM36.1966 0.0034676V11.7679H36.718L41.15 2.09409C42.0103 0.168975 43.8439 0.0034676 43.8439 0.0034676H50.1688V19.9515H43.4963V8.18707H42.9749L38.6299 17.8609C37.7696 19.7773 35.849 19.9515 35.849 19.9515H29.5242V0.0034676H36.1966ZM73.2318 9.48291C72.3011 12.1204 69.3782 14.0093 66.1421 14.0093H59.1448V19.9515H52.7996V9.48291H73.2318Z" fill="#0F754E"/>
<path fill-rule="evenodd" clip-rule="evenodd" d="M66.4481 0.00390625H52.4668C52.7995 4.44502 56.6241 8.2469 60.5833 8.2469H73.6726C74.428 4.55581 71.8277 0.00390625 66.4481 0.00390625Z" fill="url(#paint0_linear_677_16381)"/>
<defs>
<linearGradient id="paint0_linear_677_16381" x1="73.801" y1="5.1891" x2="52.4668" y2="5.1891" gradientUnits="userSpaceOnUse">
<stop stop-color="#1F5CD7"/>
<stop offset="1" stop-color="#02AEFF"/>
</linearGradient>
</defs>
</svg>
