<svg width="68" height="22" viewBox="0 0 68 22" fill="none" xmlns="http://www.w3.org/2000/svg">
<path fill-rule="evenodd" clip-rule="evenodd" d="M17.0007 21.8287H11.1157L6.70273 4.7617C6.49327 3.97662 6.04852 3.28256 5.39432 2.95544C3.76168 2.13338 1.96261 1.47915 0 1.14919V0.492109H9.48023C10.7886 0.492109 11.7699 1.47915 11.9335 2.62548L14.2232 14.9365L20.1053 0.492109H25.8267L17.0007 21.8287ZM29.0969 21.8286H23.5391L28.1156 0.492065H33.6735L29.0969 21.8286ZM40.8652 6.40296C41.0287 5.25378 42.01 4.59671 43.1549 4.59671C44.954 4.43172 46.9137 4.76169 48.5492 5.5809L49.5305 0.98704C47.895 0.329961 46.0959 0 44.4633 0C39.069 0 35.1438 2.95543 35.1438 7.05719C35.1438 10.1776 37.9241 11.816 39.8867 12.8031C42.01 13.7873 42.8278 14.4444 42.6642 15.4285C42.6642 16.9048 41.0287 17.5619 39.3961 17.5619C37.4335 17.5619 35.4709 17.0698 33.6747 16.2478L32.6934 20.8445C34.656 21.6637 36.7793 21.9936 38.7419 21.9936C44.7904 22.1558 48.5492 19.2032 48.5492 14.7715C48.5492 9.19057 40.8652 8.86345 40.8652 6.40296ZM67.9994 21.8286L63.5864 0.492065H58.8463C57.865 0.492065 56.8837 1.14914 56.5566 2.13334L48.3848 21.8286H54.1062L55.2482 18.7111H62.278L62.9322 21.8286H67.9994ZM59.6646 6.23798L61.2973 14.2794H56.7207L59.6646 6.23798Z" fill="#172B85"/>
</svg>
